<svg width="135" height="145" viewBox="0 0 135 145" fill="none" xmlns="http://www.w3.org/2000/svg">
<g style="mix-blend-mode:multiply">
<path fill-rule="evenodd" clip-rule="evenodd" d="M10.2845 96.4617C10.1569 96.4901 10.0457 96.5677 9.97531 96.6775C9.91967 96.9484 9.88521 97.2233 9.87224 97.4995C9.61458 98.0441 10.233 98.527 10.4597 99.1641C10.4597 99.236 10.7586 99.3182 10.8101 99.2668C11.3255 98.825 11.8408 98.3626 12.2943 97.8899C12.3268 97.8318 12.3438 97.7664 12.3438 97.6999C12.3438 97.6333 12.3268 97.5679 12.2943 97.5098C11.8202 96.8111 11.2636 96.2151 10.2845 96.4617Z" fill="white"/>
<path fill-rule="evenodd" clip-rule="evenodd" d="M8.19278 98.3523C8.14088 98.1271 8.00631 97.9295 7.81556 97.7983C7.62482 97.6671 7.39171 97.6118 7.16214 97.6433C7.03622 97.6656 6.91454 97.7072 6.80141 97.7666C6.79207 97.8193 6.79462 97.8733 6.80889 97.9249C6.82315 97.9764 6.84877 98.0241 6.88387 98.0646C7.1033 98.2208 7.2733 98.4363 7.37375 98.6858C7.4742 98.9352 7.50091 99.2081 7.45072 99.4723C7.40449 99.734 7.40449 100.002 7.45072 100.263C7.45072 100.356 7.62593 100.479 7.7393 100.489C8.25462 100.489 8.83178 99.8421 8.56381 99.462C8.37772 99.1158 8.25225 98.7405 8.19278 98.3523Z" fill="white"/>
<path fill-rule="evenodd" clip-rule="evenodd" d="M15.0053 102.575C14.8919 102.442 14.7786 102.205 14.5621 102.329C14.3457 102.452 14.1499 102.719 14.1705 102.75C14.5209 103.223 14.0159 103.593 14.0571 104.004C14.0571 104.065 14.1292 104.106 14.2014 104.199L14.6549 103.942C15.4072 103.49 15.4897 103.202 15.0053 102.575Z" fill="white"/>
<path fill-rule="evenodd" clip-rule="evenodd" d="M6.03787 92.0537C5.98266 92.0552 5.92903 92.0724 5.88336 92.1034C5.83769 92.1344 5.80188 92.1778 5.78021 92.2284C5.75946 92.4299 5.75946 92.6331 5.78021 92.8346C5.76475 93.105 5.76475 93.376 5.78021 93.6464C5.78021 93.821 5.91419 93.8827 6.02756 93.821C6.21015 93.7233 6.35897 93.573 6.45457 93.3897C6.55018 93.2064 6.58814 92.9986 6.5635 92.7935C6.54601 92.6359 6.48859 92.4853 6.39664 92.3559C6.30469 92.2264 6.18122 92.1225 6.03787 92.0537Z" fill="white"/>
<path fill-rule="evenodd" clip-rule="evenodd" d="M39.5861 119.786C39.6034 119.736 39.6034 119.682 39.5861 119.632C39.1532 119.056 38.4833 118.954 37.9165 118.656C37.7928 118.841 37.6794 118.933 37.6691 119.046C37.6588 119.159 37.6691 119.365 37.7825 119.375L38.2772 119.519C38.3552 119.616 38.4493 119.699 38.5555 119.765C38.6173 119.704 38.5555 119.652 38.5555 119.601C38.8029 119.678 39.0413 119.781 39.2666 119.909C39.3594 119.93 39.4727 119.837 39.5861 119.786Z" fill="white"/>
<path fill-rule="evenodd" clip-rule="evenodd" d="M9.2128 101.435C9.14969 101.423 9.08486 101.424 9.02222 101.438C8.95958 101.452 8.90045 101.479 8.84841 101.516C8.79637 101.554 8.75251 101.601 8.71947 101.656C8.68644 101.711 8.66493 101.772 8.65625 101.835C8.65625 102.329 8.74901 102.596 9.0479 102.616C9.20832 102.59 9.36117 102.529 9.49624 102.439C9.63131 102.348 9.7455 102.23 9.83119 102.092C9.87241 101.887 9.52199 101.507 9.2128 101.435Z" fill="white"/>
<path fill-rule="evenodd" clip-rule="evenodd" d="M13.1297 99.9449C13.1297 99.8935 13.0473 99.8627 12.9957 99.8216C12.9442 99.7805 12.8721 99.9244 12.8721 99.9757C12.8721 100.5 12.8721 101.003 12.8721 101.538C12.8752 101.571 12.8861 101.603 12.904 101.632C12.9219 101.66 12.9463 101.684 12.9751 101.702C12.9751 101.702 13.0988 101.64 13.1503 101.599C13.676 101.188 13.6863 101.085 13.3668 100.479C13.2637 100.315 13.2122 100.12 13.1297 99.9449Z" fill="white"/>
<path fill-rule="evenodd" clip-rule="evenodd" d="M10.6863 95.0438C10.6863 94.9821 10.6038 94.8896 10.5626 94.8896C10.3765 94.9541 10.2165 95.0771 10.1068 95.2403C9.99706 95.4034 9.94361 95.5977 9.95451 95.7939C9.95451 95.8452 10.0267 95.8966 10.0679 95.948C10.2459 95.8707 10.3985 95.7447 10.5079 95.5848C10.6173 95.4248 10.6791 95.2373 10.6863 95.0438Z" fill="white"/>
<path fill-rule="evenodd" clip-rule="evenodd" d="M10.8105 103.675C10.8105 103.839 10.6766 104.024 10.893 104.168C10.9754 104.117 11.1506 104.034 11.1403 104.014C11.0823 103.852 11.0134 103.694 10.9342 103.541C10.9342 103.541 10.8208 103.623 10.8105 103.675Z" fill="white"/>
<path fill-rule="evenodd" clip-rule="evenodd" d="M43.802 129.362C43.9154 129.362 44.0287 129.26 44.1524 129.208C44.039 129.208 43.9154 129.054 43.802 129.054H43.7092C43.5134 128.941 43.2557 128.828 43.1836 128.941C43.3004 129.003 43.3313 129.075 43.2764 129.157C43.3972 129.215 43.5255 129.257 43.6577 129.28L43.802 129.362Z" fill="white"/>
<path fill-rule="evenodd" clip-rule="evenodd" d="M20.3952 35.5618C20.3333 35.5618 20.3024 35.7262 20.2715 35.829C20.3692 35.8225 20.4626 35.7867 20.5395 35.7262C20.6219 35.6749 20.5188 35.5002 20.3952 35.5618Z" fill="white"/>
<path fill-rule="evenodd" clip-rule="evenodd" d="M20.2715 35.829V35.879C20.2725 35.8624 20.2725 35.8457 20.2715 35.829Z" fill="white"/>
<path fill-rule="evenodd" clip-rule="evenodd" d="M19.9623 36.1372C19.9623 36.1886 20.1169 36.2194 20.2199 36.2502V35.8906C20.0653 35.9009 19.9107 35.9317 19.9623 36.1372Z" fill="white"/>
<path fill-rule="evenodd" clip-rule="evenodd" d="M6.31641 47.5322C6.31641 47.5322 6.31641 47.6555 6.31641 47.6657L6.57407 47.7685C6.54315 47.6349 6.53284 47.4911 6.31641 47.5322Z" fill="white"/>
<path fill-rule="evenodd" clip-rule="evenodd" d="M6.56348 47.7684C6.56834 47.7915 6.56834 47.8154 6.56348 47.8385H6.62362C6.62362 47.8385 6.62362 47.8385 6.62362 47.7884L6.56348 47.7684Z" fill="white"/>
<path fill-rule="evenodd" clip-rule="evenodd" d="M4.72897 50.6455L4.87326 50.5119C4.80111 50.3064 4.69804 50.3064 4.60529 50.5119C4.59498 50.5119 4.68774 50.5941 4.72897 50.6455Z" fill="white"/>
<path fill-rule="evenodd" clip-rule="evenodd" d="M3.4415 52.4744C3.37966 52.4744 3.35904 52.6286 3.32812 52.7313H3.67854C3.64763 52.5977 3.64763 52.4333 3.4415 52.4744Z" fill="white"/>
<path fill-rule="evenodd" clip-rule="evenodd" d="M2.90461 53.1423H2.85449C2.85449 53.1423 2.85449 53.1924 2.85449 53.2124H2.91463L2.90461 53.1423Z" fill="white"/>
<path fill-rule="evenodd" clip-rule="evenodd" d="M3.28651 52.7827C3.19166 52.7853 3.10141 52.824 3.03431 52.8909C2.96722 52.9578 2.92838 53.0478 2.92578 53.1423H3.28651V52.7827Z" fill="white"/>
<path fill-rule="evenodd" clip-rule="evenodd" d="M2.8431 53.2142L2.59575 53.317C2.58527 53.3574 2.58527 53.3998 2.59575 53.4403C2.81218 53.4711 2.82248 53.3478 2.8431 53.2142Z" fill="white"/>
<path fill-rule="evenodd" clip-rule="evenodd" d="M27.0738 116.96C27.0738 116.96 27.1871 116.888 27.1871 116.847C27.1871 116.806 27.1253 116.765 27.0841 116.724L26.9707 116.899L27.0738 116.96Z" fill="white"/>
<path fill-rule="evenodd" clip-rule="evenodd" d="M33.5359 118.902C33.5977 119.056 33.6802 119.087 33.7626 118.984C33.8451 118.882 33.7626 118.892 33.7626 118.851C33.7626 118.81 33.6699 118.779 33.6493 118.789C33.6286 118.799 33.5256 118.902 33.5359 118.902Z" fill="white"/>
<path fill-rule="evenodd" clip-rule="evenodd" d="M40.9873 128.376C40.9873 128.376 41.0491 128.468 41.0904 128.509L41.2347 128.386L41.111 128.253C41.111 128.253 40.9976 128.324 40.9873 128.376Z" fill="white"/>
<path fill-rule="evenodd" clip-rule="evenodd" d="M48.6348 129.177C48.6348 129.177 48.5523 129.044 48.5317 129.044C48.3462 129.105 48.3359 129.208 48.5317 129.301C48.7275 129.393 48.6348 129.249 48.6348 129.177Z" fill="white"/>
<path fill-rule="evenodd" clip-rule="evenodd" d="M115.349 24.3723C115.555 24.0332 115.441 23.5606 114.967 23.0057C114.596 23.2832 115.287 23.9202 115.349 24.3723Z" fill="white"/>
<path fill-rule="evenodd" clip-rule="evenodd" d="M68.4024 7.33639C67.5882 7.25419 69.4331 7.12062 68.4024 6.93567C68.4024 7.22337 67.5779 6.93567 67.2275 7.01787C67.0832 7.3364 68.2169 7.61382 68.4024 7.33639Z" fill="white"/>
<path fill-rule="evenodd" clip-rule="evenodd" d="M41.2659 9.68933C40.6578 9.88456 40.5959 10.1517 40.7918 10.4497C41.4205 10.2442 41.4205 9.98731 41.2659 9.68933Z" fill="white"/>
<path fill-rule="evenodd" clip-rule="evenodd" d="M76.7924 7.9323C76.3923 8.02072 75.9855 8.07571 75.5762 8.09671C75.5762 7.80901 72.6698 7.16168 72.1133 7.61378C73.6283 7.82956 75.0094 8.00424 76.4111 8.26111L78.5445 8.64128L80.8428 9.09338C80.5233 8.63101 79.7504 8.48715 78.9362 8.37412C78.1999 8.36428 77.4723 8.21432 76.7924 7.9323Z" fill="white"/>
<path fill-rule="evenodd" clip-rule="evenodd" d="M71.5052 6.79186C70.7117 6.70966 70.6601 7.1412 69.8253 7.02818C70.1242 7.35698 69.1966 7.45974 69.8253 7.55221C70.0933 7.11039 71.1445 7.19258 71.5052 6.79186Z" fill="white"/>
<path fill-rule="evenodd" clip-rule="evenodd" d="M3.38971 52.1148C3.5799 51.4092 3.83166 50.7216 4.14208 50.0598C3.97718 50.0598 3.72982 50.5838 3.55461 51.1387C3.3794 51.6935 3.28664 52.2484 3.38971 52.1148Z" fill="white"/>
<path fill-rule="evenodd" clip-rule="evenodd" d="M34.6593 23.5914C35.02 23.3448 35.185 23.5401 35.5766 23.2215C35.5251 22.9236 34.4223 23.3448 34.6593 23.5914Z" fill="white"/>
<path fill-rule="evenodd" clip-rule="evenodd" d="M79.9977 1.88039L80.5027 2.00368C80.5645 1.84956 80.3481 1.76736 80.3996 1.62351C80.1701 1.5394 79.918 1.5394 79.6885 1.62351C80.1832 1.76736 80.2656 1.76736 79.9977 1.88039Z" fill="white"/>
<path fill-rule="evenodd" clip-rule="evenodd" d="M84.2744 11.8265L84.9959 12.0834C85.1917 11.734 84.3259 11.5491 84.2744 11.8265Z" fill="white"/>
<path fill-rule="evenodd" clip-rule="evenodd" d="M87.4906 8.95975C87.3875 8.83645 86.5733 8.43573 86.46 8.57958C86.8413 8.68233 87.1711 9.15497 87.4906 8.95975Z" fill="white"/>
<path fill-rule="evenodd" clip-rule="evenodd" d="M88.1088 12.9157C87.7888 12.7595 87.4337 12.6887 87.0781 12.7102C87.3873 12.7718 88.1088 13.265 88.1088 12.9157Z" fill="white"/>
<path fill-rule="evenodd" clip-rule="evenodd" d="M89.9953 12.7205C90.1808 12.6177 89.8613 12.4225 89.5624 12.3095C89.2635 12.1965 88.9749 12.217 89.2841 12.4122C89.5006 12.217 89.6036 12.6588 89.9953 12.7205Z" fill="white"/>
<path fill-rule="evenodd" clip-rule="evenodd" d="M90.2734 12.854C90.8815 13.1725 91.0258 13.0595 91.4071 13.3678C91.6236 13.1212 90.2941 12.6177 90.2734 12.854Z" fill="white"/>
<path fill-rule="evenodd" clip-rule="evenodd" d="M97.591 16.2859C97.2921 16.0291 97.1684 16.0188 97.0448 15.6592C97.0448 15.7619 96.7768 15.5872 96.6943 15.6592C96.7871 15.8133 97.2715 16.3681 97.591 16.2859Z" fill="white"/>
<path fill-rule="evenodd" clip-rule="evenodd" d="M101.971 10.2647C101.6 10.1209 100.878 9.43244 100.837 9.80234C101.27 10.0387 101.826 10.4702 101.971 10.2647Z" fill="white"/>
<path fill-rule="evenodd" clip-rule="evenodd" d="M101.692 20.735C102.103 21.0357 102.48 21.3802 102.816 21.7625C102.909 21.5262 102.022 20.7658 101.692 20.735Z" fill="white"/>
<path fill-rule="evenodd" clip-rule="evenodd" d="M108.145 20.7862C108.382 21.0206 108.672 21.1965 108.99 21.3C108.913 21.1427 108.792 21.0108 108.643 20.9197C108.493 20.8287 108.32 20.7823 108.145 20.7862Z" fill="white"/>
<path fill-rule="evenodd" clip-rule="evenodd" d="M109.886 25.7595C109.587 25.4409 109.051 25.0916 109.206 24.8963C109.443 25.0402 109.814 25.5848 109.958 25.4615C109.422 24.5059 108.165 24.2593 107.237 23.5914C107.98 24.4693 108.878 25.2041 109.886 25.7595Z" fill="white"/>
<path fill-rule="evenodd" clip-rule="evenodd" d="M121.224 30.4243C121.512 30.825 121.811 30.6298 121.78 30.4243L121.471 30.0133C121.255 30.0955 121.502 30.3832 121.224 30.4243Z" fill="white"/>
<path fill-rule="evenodd" clip-rule="evenodd" d="M124.058 37.9969C123.326 37.3188 123.553 36.877 122.863 36.2091C122.842 36.5174 123.687 38.2538 124.058 37.9969Z" fill="white"/>
<path fill-rule="evenodd" clip-rule="evenodd" d="M127.5 44.799C127.556 44.7596 127.623 44.7385 127.691 44.7385C127.759 44.7385 127.826 44.7596 127.882 44.799C127.573 44.0231 127.201 43.2739 126.769 42.5591C126.83 42.8365 126.264 42.4666 126.088 41.9734C126.016 42.035 125.862 42.0556 125.934 42.2303C126.521 43.2269 127.325 43.4016 127.5 44.799Z" fill="white"/>
<path fill-rule="evenodd" clip-rule="evenodd" d="M128.232 44.2852L128.542 45.0661C128.882 45.1997 128.387 43.8948 128.232 44.2852Z" fill="white"/>
<path fill-rule="evenodd" clip-rule="evenodd" d="M127.995 46.3814C128.108 46.3095 128.314 46.3095 128.263 46.0937C127.799 46.2478 128.263 45.1587 127.737 45.2306C127.861 45.6416 127.892 45.7752 127.995 46.3814Z" fill="white"/>
<path fill-rule="evenodd" clip-rule="evenodd" d="M122.841 108.864C122.542 109.038 122.676 109.285 122.274 109.716C122.388 110.056 123.016 109.716 122.955 109.347C122.83 109.484 122.679 109.596 122.511 109.675C122.45 109.511 122.965 109.007 122.841 108.864Z" fill="white"/>
<path fill-rule="evenodd" clip-rule="evenodd" d="M96.9512 132.034C97.5902 131.623 98.2498 131.335 98.1777 131.089C97.7139 131.571 96.8482 131.705 96.5596 132.024C96.7554 131.941 96.9306 131.869 96.9512 132.034Z" fill="white"/>
<path fill-rule="evenodd" clip-rule="evenodd" d="M81.1411 138.034C81.5225 137.901 81.8317 137.757 81.9038 137.562C81.4606 137.685 80.8422 137.757 81.1411 138.034Z" fill="white"/>
<path fill-rule="evenodd" clip-rule="evenodd" d="M66.156 140.583C64.8986 140.747 64.2596 140.696 63.2393 140.757C64.1433 141.004 65.0973 141.004 66.0014 140.757C65.6407 140.737 66.0117 140.665 66.156 140.583Z" fill="white"/>
<path fill-rule="evenodd" clip-rule="evenodd" d="M64.373 140.007C64.8351 139.866 65.2835 139.684 65.7129 139.463C64.9296 139.555 64.5276 139.514 64.373 140.007Z" fill="white"/>
<path fill-rule="evenodd" clip-rule="evenodd" d="M63.0644 140.048C63.4148 139.853 63.7653 140.367 64.26 140.048C64.26 139.832 64.1672 139.689 63.9095 139.606C63.4093 139.726 62.8982 139.794 62.3842 139.812C62.5285 140.13 62.3842 140.028 62.5491 140.346C62.2708 140.346 62.0853 140.439 62.3842 140.511C62.5903 140.274 63.4148 140.357 63.5797 140.12C63.3221 140.141 63.0644 140.151 63.0644 140.048Z" fill="white"/>
<path fill-rule="evenodd" clip-rule="evenodd" d="M60.25 140.901C61.0951 141.435 60.25 141.014 60.9405 140.901C61.3425 140.85 61.9712 141.096 62.1567 140.778C61.5188 140.765 60.881 140.807 60.25 140.901Z" fill="white"/>
<path fill-rule="evenodd" clip-rule="evenodd" d="M54.8906 140.387C55.4678 140.387 56.9519 140.603 56.8076 140.469C56.1772 140.34 55.5299 140.312 54.8906 140.387Z" fill="white"/>
<path fill-rule="evenodd" clip-rule="evenodd" d="M52.5926 139.257C53.0152 139.308 53.1492 139.175 53.4481 139.38C53.6645 139.062 52.4793 138.887 52.5926 139.257Z" fill="white"/>
<path fill-rule="evenodd" clip-rule="evenodd" d="M50.9641 137.582C51.5412 137.582 51.6649 137.757 51.9947 137.664C51.871 137.572 50.8713 137.253 50.9641 137.582Z" fill="white"/>
<path fill-rule="evenodd" clip-rule="evenodd" d="M49.0166 127.79C49.4495 127.903 49.8926 128.222 50.2946 128.109L50.3564 127.852C49.9129 127.787 49.4642 127.767 49.0166 127.79Z" fill="white"/>
<path fill-rule="evenodd" clip-rule="evenodd" d="M42.2861 129.177C42.8118 129.239 43.0488 129.496 43.3168 129.455C43.2137 129.403 43.1725 129.331 43.224 129.239C42.8015 129.116 42.3067 128.879 42.2861 129.177Z" fill="white"/>
<path fill-rule="evenodd" clip-rule="evenodd" d="M38.999 130.76C39.0556 130.791 39.1049 130.833 39.144 130.885C39.183 130.936 39.2109 130.995 39.2258 131.058C39.9472 131.119 40.174 131.222 40.7099 131.232C40.3038 131.092 39.9107 130.916 39.535 130.708C39.6483 131.099 39.0093 130.544 38.999 130.76Z" fill="white"/>
<path fill-rule="evenodd" clip-rule="evenodd" d="M36.6377 119.807C36.97 119.978 37.2784 120.192 37.555 120.444C37.8435 119.776 38.5856 121.194 39.0082 120.67C38.6887 120.587 37.9775 120.423 38.2043 120.094C38.7402 120.094 39.4101 120.906 39.575 120.454C38.8553 120.273 38.1904 119.92 37.6374 119.426C37.9775 120.084 37.153 119.56 37.4416 120.115C37.1633 119.981 36.6686 119.457 36.6377 119.807Z" fill="white"/>
<path fill-rule="evenodd" clip-rule="evenodd" d="M21.5807 119.056C21.189 119.282 21.7456 119.673 22.0754 119.724C21.6631 119.447 21.9929 119.334 21.5807 119.056Z" fill="white"/>
<path fill-rule="evenodd" clip-rule="evenodd" d="M16.2216 116.755C16.6648 116.888 15.6445 115.666 15.3353 115.553C15.2476 115.931 15.2476 116.325 15.3353 116.703C15.562 116.703 15.7372 116.436 16.0464 116.703C16.0464 116.909 17.0771 118.132 17.242 117.834C16.9462 117.435 16.6036 117.073 16.2216 116.755Z" fill="white"/>
<path fill-rule="evenodd" clip-rule="evenodd" d="M71.9072 136.103V136.185L72.7008 135.99L71.9072 136.103Z" fill="white"/>
<path fill-rule="evenodd" clip-rule="evenodd" d="M134.972 70.2296C134.859 68.3595 134.745 66.5203 134.632 64.753C134.632 64.3112 134.58 63.8694 134.55 63.4378C134.519 63.0063 134.426 62.5747 134.374 62.1534C134.251 61.3109 134.137 60.4992 134.024 59.6977C133.601 59.0709 133.674 56.6152 132.849 56.1117C132.874 55.361 132.711 54.6159 132.375 53.9437C132.952 54.1903 132.158 52.9162 132.581 52.9984C132.2 52.2894 132.354 51.2825 131.952 51.0359C132.148 52.0634 132.571 52.6799 132.241 53.0909C132.086 52.0634 131.571 51.1386 131.767 50.3783C131.478 49.6385 130.623 48.3747 130.736 47.6554C130.324 47.7171 130.489 46.7615 130.087 46.4429C129.932 46.4429 129.973 46.7615 129.85 46.5354C129.448 45.9806 129.499 45.0764 129.118 44.6346C129.18 44.8298 129.242 45.0147 129.118 45.0147C128.871 44.5626 129.067 44.4907 128.819 43.9872C128.531 44.0489 128.953 44.727 128.953 45.0147C129.5 45.6846 129.84 46.4985 129.932 47.3574C129.592 46.8642 129.334 46.7718 129.376 46.1244C129.118 46.1244 129.376 46.5046 129.17 46.5663C129.376 47.0903 129.644 47.0081 129.829 47.5938C129.572 47.5938 129.355 47.2649 129.108 47.1622C129.293 47.7376 129.592 47.4602 129.788 47.9739C129.695 48.1897 129.334 47.6143 129.458 48.1075C129.528 48.1514 129.582 48.2161 129.613 48.2924H129.458L129.139 48.4569C129.146 48.4232 129.163 48.3922 129.186 48.3669C129.21 48.3417 129.24 48.3231 129.273 48.313C129.082 48.0241 128.988 47.6823 129.005 47.3369C128.809 47.4294 129.005 48.1281 129.067 48.498L128.386 48.8473C128.344 48.8319 128.305 48.8074 128.273 48.7754C128.237 48.6209 128.189 48.4697 128.129 48.3233C128.13 48.2344 128.112 48.1463 128.077 48.0648C128.041 47.9834 127.988 47.9104 127.922 47.8506C127.804 47.6627 127.73 47.4505 127.705 47.23C127.68 47.0094 127.705 46.7861 127.778 46.5765C127.232 46.3094 126.614 44.203 126.675 43.6379C126.469 43.6379 126.232 43.4118 126.036 43.0728C126.026 42.9531 126.026 42.8328 126.036 42.7131C126.036 42.5487 125.923 42.4871 125.738 42.5282C125.624 42.2302 125.573 41.9733 125.645 41.9322C125.387 41.6959 125.129 41.4493 124.882 41.1822C124.789 40.9767 124.717 40.7711 124.624 40.5656H124.676C124.367 39.8772 124.027 39.2402 123.645 38.6237C122.887 37.2049 122.008 35.8539 121.017 34.5856C120.677 34.0102 120.337 33.404 119.987 32.7361C119.863 32.8286 119.729 32.7361 119.574 32.6231C119.331 31.8742 118.876 31.2108 118.265 30.7119C118.128 30.2459 117.916 29.8052 117.637 29.407L117.709 29.3145C117.513 29.0576 117.431 29.0166 117.369 29.0474C117.307 29.0782 117.204 28.8316 117.111 28.7289C116.74 28.2768 116.328 27.8349 115.946 27.3931C115.568 26.9831 115.223 26.5433 114.916 26.0779C113.978 24.6291 113.061 23.1392 112.009 21.7213C110.963 20.2975 109.62 19.1163 108.072 18.2586C107.753 18.0018 107.732 18.4539 107.444 18.2586C106.347 17.3277 105.183 16.4794 103.96 15.7207C102.641 14.9501 101.322 14.1075 100.064 13.3883C98.3121 12.2991 96.7867 10.912 94.8079 10.1825C93.7854 9.81266 92.7238 9.561 91.6438 9.43241C90.7165 9.35322 89.7826 9.45086 88.892 9.72011C87.1914 9.00086 84.7694 9.78175 83.2234 8.6104C82.8421 8.6104 82.8008 9.05222 82.1928 8.84672C81.7393 8.74397 81.7908 8.53848 81.5744 8.40491C81.4713 8.87756 81.7393 8.82618 81.3786 9.15498C82.3983 9.33992 83.4344 9.41911 84.4705 9.3913C84.7591 9.5146 84.8415 9.69956 85.3259 9.80231C88.4734 9.79619 91.6027 10.278 94.6017 11.2305C97.838 12.3608 100.528 14.6829 102.847 15.3405C103.28 15.6899 102.847 15.9468 103.084 16.2858C104.383 16.6352 104.908 17.8168 106.176 18.5874C107.062 19.1731 108.165 19.2656 109.124 20.0156C109.959 20.7377 110.722 21.5395 111.401 22.4097C112.114 23.367 112.882 24.283 113.7 25.1531C113.695 25.2113 113.695 25.2697 113.7 25.3278C113.226 24.9374 112.885 24.5675 112.143 23.9921C112.246 23.8071 112.535 24.2592 112.659 24.1565C112.2 23.7074 111.718 23.2822 111.216 22.8824C110.793 22.5115 110.444 22.0655 110.185 21.5672C109.958 21.9165 109.35 21.2075 109.062 21.3822C109.701 21.9884 110.515 22.7385 110.515 23.3858C109.886 23.0468 109.989 22.4817 109.618 22.4611C109.945 23.0806 110.428 23.6046 111.02 23.9818C111.65 24.4099 112.225 24.9137 112.731 25.482C112.692 25.5189 112.643 25.545 112.591 25.5576C112.539 25.5702 112.484 25.5689 112.432 25.5539C112.817 26.0781 113.309 26.5157 113.875 26.8382C113.978 27.0026 114.102 27.1568 114.215 27.3109C114.132 27.2617 114.041 27.2269 113.947 27.2081C114.05 27.4239 114.174 27.65 114.266 27.8657C114.2 27.8109 114.116 27.7818 114.029 27.7836C114.146 27.9 114.249 28.013 114.339 28.1226C114.37 28.2265 114.37 28.3373 114.339 28.4412C113.607 28.0504 112.822 27.7667 112.009 27.5986C111.908 27.4464 111.822 27.2847 111.752 27.1157L111.566 27.3006C111.653 27.3746 111.733 27.4572 111.803 27.5472L111.484 27.4753L111.329 27.3109C111.432 27.2184 111.247 26.7972 111.123 27.0849C111.267 27.2287 111.298 27.3315 111.236 27.4137C110.965 27.2937 110.709 27.142 110.474 26.9616C110.287 26.694 110.122 26.4123 109.979 26.119C109.905 26.0306 109.813 25.9595 109.709 25.9107C109.605 25.8619 109.491 25.8366 109.376 25.8366C109.261 25.8366 109.147 25.8619 109.043 25.9107C108.939 25.9595 108.847 26.0306 108.773 26.119C108.716 26.2466 108.651 26.3702 108.577 26.4889C108.331 26.3638 108.094 26.2231 107.866 26.0676C107.95 25.6228 107.893 25.1629 107.701 24.7524C107.701 24.6805 107.464 24.6805 107.341 24.6702C107.308 24.676 107.277 24.6891 107.25 24.7087C107.223 24.7283 107.201 24.7538 107.186 24.7832V24.8449C106.994 24.7914 106.817 24.6911 106.674 24.553C106.53 24.4149 106.422 24.2434 106.361 24.0537C106.31 24.099 106.272 24.1574 106.252 24.2227C106.232 24.288 106.231 24.3575 106.248 24.4236C106.558 24.6091 106.848 24.826 107.114 25.0709C107.114 25.0709 107.114 25.1326 107.114 25.1429C107.249 25.2874 107.345 25.4644 107.392 25.6566C106.762 25.017 106.071 24.439 105.331 23.9304L104.877 23.653L104.929 23.5914L104.805 23.4372C104.805 23.4372 104.723 23.5091 104.702 23.5502C104.249 23.297 103.781 23.0706 103.3 22.8721L102.847 22.3995C102.679 22.2759 102.503 22.1627 102.321 22.0604C99.2845 19.3433 95.8466 17.1081 92.1282 15.433C88.0925 13.6473 83.8011 12.5031 79.41 12.0423C78.581 11.6361 77.7054 11.3324 76.8025 11.138C75.808 10.9144 74.7919 10.8007 73.7724 10.799C72.5872 9.77147 70.2579 9.5968 67.9905 9.70982L66.3105 9.80231C65.7643 9.80231 65.2799 9.89477 64.7337 9.91532C63.892 9.98503 63.0446 9.90856 62.2292 9.68928C61.1985 11.0456 57.4985 10.7168 56.2205 10.2647C56.0556 10.7373 55.53 10.9634 54.9013 11.0456C54.2569 11.1062 53.6081 11.1062 52.9637 11.0456C52.9637 10.8606 53.8088 10.4599 52.8812 10.6551C52.4484 10.6551 52.4896 10.9223 52.2835 11.0456C51.8197 10.8401 51.2528 10.7476 50.9848 10.3982C50.1397 10.501 50.0882 10.8401 49.2534 10.9531C49.3073 10.7686 49.3993 10.5975 49.5236 10.4506C49.6478 10.3037 49.8015 10.1844 49.9748 10.1003C51.1291 9.6379 51.3868 9.99752 52.0361 10.0181C51.9433 9.70982 51.5311 9.70983 52.1598 9.46323C52.6133 10.203 53.5615 8.9803 54.2211 9.58653C53.8088 9.68928 53.4893 9.81257 53.3759 10.0181C54.2211 9.7201 55.2414 9.4324 55.9938 9.1858C55.7567 9.1858 55.4166 9.1858 55.7567 9.08305C51.8338 8.96493 47.924 9.58902 44.2341 10.9223C40.5873 12.2525 37.0968 13.9752 33.8246 16.0598C33.104 16.1164 32.4025 16.3192 31.7633 16.6557C29.9597 18.1764 28.5786 19.1115 28.8878 20.6013C31.3063 18.668 33.9131 16.9813 36.6692 15.5666C37.0748 15.4655 37.4996 15.4691 37.9035 15.577C38.3074 15.6848 38.6771 15.8934 38.9778 16.1831C36.1126 18.084 32.4745 19.1628 30.0112 21.4028C29.6608 21.7316 29.6196 21.9987 29.2691 22.2659C27.1357 23.9612 25.8886 24.5983 24.3942 25.7183C21.4878 27.9068 19.0451 30.9483 16.685 33.6711C16.1696 34.2774 15.1905 34.5445 15.1184 35.5515C15.8295 34.8528 16.5613 34.1129 17.1797 33.3731C17.761 32.7375 18.282 32.0496 18.736 31.3181C19.5399 30.6605 20.622 29.7872 21.6527 28.8008C22.6833 27.8144 23.8067 26.8588 24.7446 26.0882C25.2909 25.7902 25.7753 25.482 26.27 25.1737C26.7647 24.8654 27.2388 24.5778 27.6923 24.2592L30.3616 22.3686C32.3438 20.8669 34.4953 19.6014 36.7722 18.5977C37.3597 19.0704 37.9059 18.5977 38.8335 18.2792C39.1221 18.9984 39.8642 18.9779 40.8948 18.6182C41.3483 18.197 40.3383 18.2895 40.8227 17.9401C41.472 17.9401 42.0904 17.9401 42.3893 18.3717C41.9658 18.6227 41.4962 18.7869 41.0082 18.8546C41.4411 19.3375 42.5645 18.7518 42.8634 19.4505C41.9667 19.9437 41.1319 20.478 40.328 21.0329C39.5241 21.5877 38.782 22.1939 38.0399 22.7796C36.5866 24.0031 35.0355 25.1062 33.402 26.0779C32.7967 25.9722 32.1813 25.9343 31.5675 25.9649C31.5675 26.643 32.9176 26.0368 33.3917 26.417C32.9606 26.9591 32.4959 27.4739 32.0004 27.9582C31.8458 28.1124 31.7118 28.2768 31.5675 28.4412H31.4747C31.1345 28.4676 30.8055 28.5746 30.5151 28.7533C30.2247 28.932 29.9813 29.1773 29.8051 29.4687C29.7535 29.5817 29.6917 29.6844 29.6402 29.7872C29.1733 30.1279 28.7291 30.4986 28.3106 30.8969H28.2385L28.1148 31.051C28.0309 31.121 27.9517 31.1965 27.8778 31.2771C27.3265 31.6167 26.6767 31.7614 26.0329 31.688C25.7959 31.688 25.6722 31.8216 25.6 32.0374C25.5697 32.168 25.5058 32.2884 25.4145 32.3868C25.2084 32.6128 25.0229 33.0135 24.6415 32.5923C24.4856 32.641 24.3435 32.7261 24.227 32.8405C24.1105 32.9548 24.023 33.0951 23.9716 33.2499C23.7449 33.8047 23.4357 34.2054 22.7658 34.1643C22.6308 34.1563 22.4979 34.2005 22.3947 34.2876C21.9413 34.7808 21.2507 35.0891 21.0343 35.7878C20.9003 36.2502 20.5396 36.1474 20.2304 36.1988C20.1789 36.3118 20.1376 36.4762 20.0655 36.4968C19.0951 36.8314 18.231 37.4164 17.561 38.1921C17.2122 38.6204 16.7767 38.9705 16.283 39.2196C15.5513 39.5176 14.6855 39.7847 14.8298 40.9047C14.8298 41.0486 14.6031 41.2335 14.4588 41.3774C14.2169 41.6234 13.9624 41.8566 13.6961 42.0761C13.5724 42.1891 13.4487 42.4563 13.222 42.1994C12.9953 41.9425 12.717 41.922 12.9953 41.5726C13.0815 41.4717 13.1322 41.3454 13.1395 41.213C13.1395 41.0897 13.0571 40.9664 13.0159 40.8431L12.8407 40.9561C12.6228 41.1066 12.445 41.3079 12.3229 41.5425C12.2008 41.7771 12.1379 42.0378 12.1398 42.3021C12.1398 42.5693 12.2429 42.7542 12.0264 42.97C11.8866 43.1627 11.7081 43.3243 11.5023 43.4446C11.2965 43.5649 11.0679 43.6412 10.8309 43.6687C10.1713 43.6687 10.6557 44.0283 10.6042 44.2441C10.5237 44.7128 10.27 45.1344 9.89301 45.4257C9.56022 45.5994 9.27666 45.8538 9.0685 46.1655C9.1421 45.7692 9.25251 45.3805 9.3983 45.0045C10.2434 42.672 12.2841 40.1752 13.1189 37.8736C14.1496 37.5345 13.3251 37.1954 14.4588 36.3426C14.3145 36.0446 14.1496 35.4898 13.8198 35.6439C13.6755 35.6439 13.5106 35.7467 13.3457 35.8802C12.851 37.1749 12.0677 37.9352 11.7482 39.1374C9.45959 41.5913 7.79799 44.5589 6.90414 47.789C6.81202 47.8043 6.71799 47.8043 6.62587 47.789C6.62855 47.8491 6.64591 47.9077 6.67645 47.9596C6.70698 48.0115 6.74976 48.0552 6.80108 48.087L6.73924 48.2924C6.64648 48.6007 6.56403 48.909 6.48158 49.2275C6.30641 49.3389 6.12392 49.4385 5.93534 49.5255C5.7532 49.6094 5.59962 49.7446 5.49344 49.9143C5.38725 50.0841 5.33308 50.281 5.33756 50.481C5.33756 51.8579 5.33756 51.8579 4.03895 52.536C3.93525 52.5921 3.82426 52.6336 3.70914 52.6593C3.71636 52.7193 3.71087 52.7801 3.69303 52.8379C3.67519 52.8956 3.64539 52.9489 3.60556 52.9945C3.56572 53.04 3.51675 53.0767 3.4618 53.1021C3.40686 53.1276 3.34716 53.1412 3.28658 53.1423C3.28658 53.4711 3.83282 53.7793 3.28658 54.1698C3.00163 54.3699 2.75981 54.6249 2.57543 54.9198C2.50586 55.0367 2.43017 55.1499 2.34869 55.2589C2.36015 55.2186 2.36015 55.1759 2.34869 55.1356C2.34869 55.2178 2.29716 55.3103 2.26624 55.413C2.14404 55.5612 1.99336 55.6834 1.82306 55.7727C1.43142 55.9782 1.82306 56.3583 1.96735 56.6357C1.31804 57.4064 1.96735 58.5469 1.21498 59.2867C1.26508 59.8347 1.24778 60.3868 1.16345 60.9307C0.926318 61.4821 0.810348 62.0777 0.823336 62.6775C0.842434 62.779 0.84059 62.8833 0.817916 62.9841C0.795242 63.0848 0.752214 63.1799 0.691456 63.2636C0.630698 63.3472 0.553483 63.4177 0.464522 63.4706C0.375562 63.5235 0.276721 63.5578 0.174028 63.5714C0.12572 63.6128 0.088268 63.6653 0.0649204 63.7244C0.0415728 63.7835 0.0330351 63.8473 0.0400452 63.9104C0.328626 64.342 0.132803 64.7633 0.0400452 65.1846C0.426915 65.8372 0.559006 66.609 0.411076 67.3526C0.411076 68.0718 0.6069 68.863 0.0400452 69.5206C-0.0630193 69.6439 0.0400445 69.9316 0.266786 70.0138C0.493528 70.096 0.792415 70.1782 0.771802 70.5378C0.756218 70.8116 0.756218 71.086 0.771802 71.3598C0.843948 72.5004 0.617205 73.6717 1.18406 74.7506C1.25621 74.8842 1.18406 75.141 1.081 75.326C0.977933 75.5109 0.792417 75.6034 1.00885 75.8295C1.12817 75.9973 1.20857 76.1894 1.24422 76.392C1.27987 76.5946 1.26988 76.8025 1.21498 77.0008C1.09672 77.5364 1.14342 78.095 1.34897 78.6037C1.58953 79.1668 1.93985 79.6768 2.37961 80.1039C2.60732 80.2528 2.76665 80.4855 2.82279 80.7512C2.8378 81.3571 2.993 81.9514 3.27627 82.4877C3.25431 83.5024 3.55363 84.4983 4.13171 85.3338C4.18324 85.4571 4.29661 85.6626 4.33784 85.6524C5.13143 85.4366 5.25511 86.2586 5.72921 86.5155C6.2033 86.7723 6.75985 87.0087 7.22364 87.245L7.50192 87.9437C7.50192 88.0156 7.50192 88.067 7.56376 88.1184C7.65651 88.3444 7.73897 88.5807 7.82142 88.8171C7.73455 88.8765 7.66059 88.9528 7.60398 89.0414C7.54737 89.1299 7.50927 89.229 7.49195 89.3326C7.47463 89.4362 7.47845 89.5422 7.50319 89.6443C7.52792 89.7464 7.57306 89.8424 7.6359 89.9268C7.92588 90.5221 8.13057 91.155 8.24398 91.8071C8.30582 92.0229 8.35735 92.2078 8.55317 92.2694C8.749 92.3311 9.01696 92.4339 8.82114 92.7935C8.62532 93.1531 8.749 93.523 8.55317 93.749C8.07908 94.2936 8.70777 94.5916 8.75931 95.0129C8.75931 95.2287 9.13034 95.2081 9.27463 95.0951C9.65597 94.8074 9.97547 94.4272 10.3053 94.1292C10.6351 93.8313 10.4599 93.636 10.3053 93.3072C10.1389 92.6323 10.1389 91.9272 10.3053 91.2522C10.3053 91.2009 10.3877 91.1598 10.4393 91.1084C10.4908 91.057 10.5629 91.2111 10.5629 91.2625C10.5629 91.8071 11.1298 92.0126 11.3462 92.4236C11.439 92.6188 10.934 92.9373 11.3462 93.0503C11.5997 93.1367 11.8272 93.2857 12.0074 93.4833C12.1876 93.6809 12.3147 93.9208 12.3769 94.1806C12.6139 94.8074 12.8407 95.4342 13.1189 96.0404C13.3972 96.6466 13.7682 97.3556 14.1496 98.0235C14.232 98.1981 14.3866 98.4036 14.366 98.568C14.3274 98.8751 14.3755 99.1868 14.5047 99.4681C14.634 99.7494 14.8394 99.9892 15.0978 100.161C15.3059 100.339 15.4631 100.568 15.5536 100.826C15.6441 101.084 15.6646 101.362 15.6131 101.63C15.6131 101.959 15.5409 102.329 15.8398 102.586C16.3051 103.15 16.6965 103.772 17.0045 104.435C17.1797 104.702 17.2209 104.312 17.293 104.178C17.3561 104.079 17.4286 103.986 17.5095 103.901C17.5095 103.962 17.6332 104.014 17.6229 104.065C17.7618 104.865 17.6872 105.687 17.4064 106.449C17.2833 106.731 17.2403 107.041 17.2821 107.345C17.3239 107.65 17.4489 107.937 17.6435 108.175C18.2206 109.131 18.3031 109.275 19.2204 109.583C20.1376 109.891 20.1273 109.984 20.1479 110.693C20.1685 111.402 20.0964 111.936 20.6942 112.367C20.8073 112.446 20.888 112.563 20.9209 112.696C20.9209 113.652 21.6321 114.135 22.2092 114.7C22.7864 115.265 22.9925 115.727 23.6521 115.82C24.0154 116.41 24.4441 116.958 24.9301 117.453C25.3733 118.049 26.3009 118.101 26.5173 118.923C26.5173 119.056 26.7131 119.015 26.7853 118.841C26.8574 118.666 26.8368 118.573 26.8884 118.45L26.9708 118.327C27.2903 118.584 27.651 118.841 28.0014 119.097C27.7644 118.841 27.4655 118.409 27.1769 118.07V117.988C27.2285 117.649 26.9914 117.546 26.6925 117.464C26.5943 117.436 26.5027 117.389 26.423 117.326C26.3434 117.262 26.2773 117.183 26.2287 117.094C26.1876 116.986 26.1359 116.883 26.0741 116.786H26.1875C26.1363 116.713 26.0694 116.654 25.9917 116.611C25.6413 116.066 25.1156 115.666 24.7549 115.131C24.3942 114.597 24.0644 114.35 24.0541 113.95C24.1437 113.427 24.3289 112.926 24.6003 112.47C24.6725 112.285 24.7343 112.1 24.8168 111.915C24.8428 111.853 24.8856 111.8 24.9404 111.761C25.1775 111.607 25.0126 111.689 25.0641 111.915C25.1775 112.429 25.4454 112.552 25.9195 112.542C26.3936 112.532 26.239 112.748 26.1257 113.045C25.9505 113.498 26.4555 113.282 26.6101 113.415C26.7647 113.549 26.7956 113.693 26.6101 113.703C25.9505 113.703 26.136 114.094 26.2906 114.453C26.1403 114.595 26.0363 114.779 25.9922 114.98C25.9481 115.182 25.9659 115.392 26.0432 115.583C26.0496 115.617 26.063 115.649 26.0825 115.678C26.102 115.706 26.1273 115.73 26.1566 115.748C26.1566 115.748 26.2803 115.748 26.3215 115.666C26.3627 115.583 26.6822 115.388 26.7235 115.214C26.7769 114.878 26.9598 114.576 27.2332 114.372C27.5065 114.169 27.8488 114.08 28.187 114.124C28.4328 114.286 28.7327 114.345 29.0218 114.289C28.9698 114.455 28.9808 114.634 29.0527 114.792L28.96 114.731L29.0939 114.874C29.1448 114.976 29.2148 115.067 29.3001 115.142C29.4134 115.234 29.3825 115.44 29.3001 115.625C29.196 115.541 29.0858 115.465 28.9703 115.398C29.1249 115.059 28.4343 114.371 28.3931 114.751C29.0939 114.844 28.3931 115.131 28.5168 115.285C28.7687 115.454 28.9914 115.662 29.1764 115.902C28.979 116.319 28.8069 116.748 28.6611 117.186C28.5122 117.494 28.477 117.844 28.5619 118.175C28.6468 118.506 28.8461 118.796 29.1249 118.995C29.4097 119.189 29.6277 119.465 29.7494 119.787C29.8711 120.109 29.8905 120.46 29.8051 120.793C29.8051 120.988 29.8051 121.204 29.8051 121.409C29.7943 121.495 29.7943 121.581 29.8051 121.666C29.69 121.646 29.5764 121.619 29.465 121.584C29.5756 121.696 29.7003 121.792 29.836 121.872C29.8314 121.933 29.8314 121.995 29.836 122.057C28.9375 121.56 28.1004 120.96 27.3418 120.269L25.3836 118.553C24.8443 118.012 24.273 117.505 23.6727 117.032C23.8686 117.217 23.0337 116.786 22.8173 116.385C22.8173 117.104 24.0025 118.358 24.1778 119.334C24.5836 119.634 24.8832 120.055 25.0332 120.536C25.1923 120.68 25.3828 120.786 25.5897 120.844C25.3424 121.563 28.4137 123.557 27.8056 123.752C28.4238 123.942 29.0211 124.193 29.5886 124.502C29.7535 124.358 29.434 124.194 29.6814 124.05C30.0627 124.307 30.3822 124.451 30.5781 124.389C29.7742 123.865 29.4444 124.163 28.7332 123.773C29.0115 123.588 28.7332 123.218 28.3622 123.187C27.9911 123.31 28.7744 123.547 28.6095 123.68C28.4034 123.547 28.3828 123.803 28.1251 123.557C28.6508 123.351 27.0326 122.807 26.909 122.242C26.9636 122.178 27.0371 122.134 27.1188 122.116C27.2004 122.097 27.2858 122.105 27.3624 122.139C28.2179 122.92 27.9499 122.355 28.3931 122.499C28.8363 122.642 28.5992 122.93 28.8878 123.166C29.1867 122.868 29.9184 123.31 30.3925 123.701C31.0898 123.912 31.8091 124.043 32.5363 124.091L32.6497 124.184C33.0611 124.521 33.495 124.83 33.9483 125.108C34.0513 125.18 34.1956 125.108 34.2059 124.944C34.2059 124.543 34.4018 124.081 34.1132 123.762C33.8246 123.444 33.4226 122.735 32.6703 122.735C32.5718 122.732 32.475 122.709 32.3862 122.666C32.2975 122.624 32.2186 122.563 32.1549 122.488L31.7324 121.861C31.7774 121.837 31.8261 121.819 31.8767 121.81C31.7804 121.765 31.6874 121.714 31.5984 121.656L30.9594 120.628C31.1655 120.074 31.351 119.508 31.5984 118.964C31.693 118.791 31.7187 118.59 31.6705 118.399C31.6465 118.344 31.6071 118.298 31.5572 118.265C30.8151 118.882 30.6914 118.008 30.3307 117.741C30.2193 117.634 30.1371 117.501 30.092 117.353C30.0469 117.206 30.0404 117.049 30.073 116.899C30.5162 116.755 30.6914 117.597 31.1965 117.402L31.3407 117.525C31.7085 118.058 32.1651 118.524 32.6909 118.902C33.2577 119.313 33.804 119.673 34.0616 119.93C34.0616 119.837 34.309 119.714 34.4224 119.755C34.7006 120.187 36.1642 120.382 35.453 120.485C35.5791 120.584 35.7299 120.649 35.8895 120.67C36.0491 120.692 36.2116 120.67 36.36 120.608C35.4849 120.119 34.5674 119.71 33.6185 119.385C33.4845 118.902 32.794 118.594 32.2786 118.255C32.0982 118.149 31.929 118.025 31.7736 117.885C31.8692 117.864 31.9624 117.833 32.0519 117.793C32.0628 117.77 32.0685 117.746 32.0685 117.721C32.0685 117.696 32.0628 117.671 32.0519 117.649C31.9724 117.54 31.9001 117.427 31.8355 117.31C31.7633 117.125 31.7015 116.899 31.9385 116.775C32.02 116.718 32.1172 116.688 32.2168 116.688C32.3164 116.688 32.4135 116.718 32.4951 116.775C32.6497 116.888 32.8249 116.981 32.9795 117.073C33.1341 117.166 32.9795 117.515 33.0825 117.659C33.2224 117.792 33.4048 117.872 33.5979 117.885C33.875 117.89 34.151 117.921 34.4224 117.978C34.2884 117.978 34.1441 117.977 34.4739 118.183C34.6131 118.19 34.7512 118.21 34.8862 118.245C34.9322 118.275 34.9855 118.293 35.0408 118.296C35.8137 118.563 36.731 119.252 37.3082 119.324L36.2775 118.645H36.8959C36.9599 118.622 37.0117 118.574 37.0402 118.512C37.0402 118.512 37.0402 118.419 36.9784 118.399C36.8512 118.306 36.6978 118.256 36.5403 118.256C36.3829 118.256 36.2294 118.306 36.1023 118.399C36.1023 118.399 36.1023 118.46 36.0405 118.502L35.4633 118.121C35.6488 117.988 35.8344 117.834 36.0508 117.875C36.2937 117.906 36.5396 117.906 36.7825 117.875C36.9959 118.094 37.2429 118.278 37.5143 118.419C37.5864 118.193 37.9987 118.625 38.0296 118.317C38.0548 118.247 38.0548 118.171 38.0296 118.101C38.4195 118.266 38.8459 118.326 39.2664 118.276C39.7096 118.276 39.9879 118.337 40.1528 118.861C40.1923 118.993 40.261 119.114 40.3538 119.215C40.4465 119.316 40.561 119.396 40.6887 119.447C40.6887 119.601 40.8021 119.796 41.0082 119.971C40.565 119.971 40.3898 120.382 39.8436 120.197C40.0703 120.32 40.2352 120.444 40.2661 120.598C40.1012 120.731 39.7096 120.598 39.5859 120.752C40.1753 120.929 40.7128 121.247 41.1525 121.677C41.3277 121.255 42.0491 121.759 42.2553 121.903C42.0907 121.962 41.9121 121.97 41.7428 121.926C41.5736 121.882 41.4216 121.788 41.3071 121.656C41.3895 122.129 40.7608 121.533 40.7505 121.882C41.2246 122.221 42.987 121.882 43.3787 122.838C42.2553 122.283 41.8842 122.57 41.1216 122.437C41.0433 122.493 40.9805 122.568 40.9389 122.655C40.8973 122.742 40.8781 122.838 40.8833 122.934C40.8884 123.03 40.9176 123.123 40.9683 123.205C41.0189 123.287 41.0893 123.355 41.1731 123.403L41.2762 123.177C41.5544 123.269 41.5854 123.382 41.7606 123.495C41.6472 123.495 41.5338 123.567 41.6884 123.66C41.5751 123.845 41.5132 123.475 41.204 123.423C41.5957 123.752 42.2347 124.06 42.616 124.451C43.8116 124.759 45.3987 125.848 46.3882 125.879C45.9965 125.632 45.0174 125.458 45.0277 124.944C45.4503 124.636 45.7595 125.437 46.0584 125.108C45.5018 124.79 45.1823 124.893 45.0277 124.482C45.2029 124.543 45.1926 124.379 45.3472 124.41C45.8522 124.708 46.3778 125.16 46.2336 125.375C46.2336 125.098 46.5531 125.715 46.6664 125.427C46.4912 125.293 46.5531 125.098 46.5221 124.923C45.8625 124.708 45.4915 124.44 45.4915 124.081C46.3572 124.009 46.9344 124.451 47.5528 124.512C47.6737 124.756 47.8339 124.978 48.0269 125.17C48.1002 125.239 48.1943 125.283 48.2948 125.294C48.3952 125.305 48.4966 125.283 48.5834 125.232C48.7483 125.17 48.8411 124.913 49.0885 125.067C49.4526 125.232 49.7981 125.436 50.1191 125.673C50.7382 126.288 51.4837 126.761 52.3041 127.061C52.2949 127.094 52.2949 127.13 52.3041 127.163C51.5774 127.192 50.8524 127.076 50.1706 126.824C50.2141 126.883 50.2662 126.935 50.3252 126.978L48.8102 126.691C48.4598 127.225 49.3976 126.691 49.3564 127.122C49.0266 127.204 47.9547 126.968 47.9341 126.609C48.1753 126.719 48.4232 126.816 48.6762 126.896C48.5937 126.701 48.2742 126.588 47.9857 126.454C47.8276 126.397 47.686 126.302 47.5734 126.177C47.4703 126.177 46.7798 126.126 47.089 126.29C46.0584 126.064 45.1102 125.715 44.1826 125.447C43.0825 125.038 41.924 124.805 40.7505 124.759C40.6423 124.546 40.4772 124.368 40.2735 124.242C40.0698 124.117 39.8355 124.051 39.5962 124.05C38.5329 123.708 37.5678 123.116 36.7825 122.324C36.3909 122.786 35.8137 121.533 35.2366 121.522C35.2366 121.389 35.1644 121.307 35.3706 121.296C34.1338 121.214 34.0616 119.868 32.7733 119.447C33.268 119.817 32.0622 119.57 33.0413 120.115C33.3093 120.043 32.8867 119.642 33.2165 119.817C32.9073 120.248 33.9998 120.772 34.1441 121.389C35.0923 121.389 35.5561 122.201 36.5455 122.786C36.5455 122.992 36.5455 123.577 37.0196 123.495C36.4527 123.269 37.2566 123.269 37.3391 123.166C37.8431 123.425 38.3167 123.738 38.7511 124.101C38.499 124.145 38.2555 124.228 38.0296 124.348L38.3904 124.492C38.3904 124.584 38.3904 124.625 38.2255 124.749C38.8026 125.139 38.9469 124.903 39.2561 124.944C38.8232 125.386 40.7093 125.879 41.0803 126.362C41.0803 126.177 41.2865 126.167 41.5957 126.29C41.4926 126.382 41.3689 126.362 41.4926 126.537C44.2135 127.472 46.7077 128.191 49.1915 128.931C50.1088 128.869 52.603 129.208 52.2835 130.051C55.436 130.883 58.6713 131.366 61.9303 131.489C63.1062 131.21 64.327 131.175 65.5169 131.386C65.3623 131.386 65.8261 131.171 66.1147 131.273C67.1453 131.623 65.3726 131.972 64.4863 131.931C65.2593 131.931 64.4863 132.506 64.342 132.712C62.6414 132.876 61.2501 132.804 59.7453 132.958C59.3434 132.907 59.2918 132.681 58.8384 132.661C58.1581 132.969 57.4985 132.321 56.7049 132.311C56.2617 132.311 55.8907 132.619 55.4372 132.568C54.9837 132.517 54.5406 132.085 54.1077 132.023C53.85 132.023 53.3862 132.075 53.1698 132.023C53.1698 132.023 53.3038 131.869 53.345 131.869C52.8915 131.797 52.6339 132.003 52.2422 131.962C52.1701 131.962 52.1701 131.695 52.1289 131.674C51.6135 131.397 50.8715 131.674 50.2634 131.582C49.8821 131.232 50.8509 131.325 50.2015 131.119C50.0985 131.407 49.4801 131.201 49.1709 131.325C48.8514 130.749 47.46 130.945 47.7692 130.534C47.1114 130.476 46.4576 130.38 45.811 130.246C45.1945 130.106 44.5856 129.934 43.9868 129.732C44.1517 129.804 44.1001 129.917 44.0486 130.03C43.3952 129.736 42.6997 129.545 41.9873 129.465C41.9873 129.383 42.1419 129.403 42.1934 129.352C41.3689 129.064 40.5753 128.848 39.9054 128.55C39.3131 128.294 38.7351 128.006 38.1739 127.687C37.9924 127.757 37.8012 127.799 37.6071 127.811C37.3494 127.431 37.2154 127.482 36.865 127.554C36.6486 127.276 36.865 127.009 36.4424 126.968C36.8238 127.42 35.7622 126.968 35.4118 126.886C35.4839 126.722 35.0717 126.598 35.2778 126.434C35.2778 126.228 35.7313 126.537 35.8137 126.434C34.8862 126.013 34.7831 126.249 34.5254 126.578C34.7934 126.876 35.3706 127.143 35.6798 127.43C36.1642 127.112 37.5555 128.098 37.8235 128.458C37.6277 128.376 37.6277 128.54 37.4628 128.458C37.4628 128.345 37.5865 128.242 37.4628 128.15C36.4321 128.253 35.6488 127.554 34.5461 126.948C34.7316 127.42 34.1647 127.061 33.9895 127.359C35.1232 127.903 36.2775 128.386 37.2979 128.931C36.9062 128.571 37.8235 128.931 38.009 128.879C38.2358 129.126 38.9572 129.732 39.2046 129.722C39.0397 129.629 39.1015 129.516 39.2046 129.414C39.6477 130.071 40.6372 130.225 41.4411 130.657C40.5238 130.277 40.8845 130.657 40.1528 130.462C40.7711 130.821 41.101 131.058 41.6884 130.934L41.5957 131.181C42.4872 131.38 43.3521 131.684 44.1723 132.085C44.6464 132.28 45.1205 132.496 45.6152 132.661C46.0979 132.798 46.5907 132.898 47.089 132.958C47.089 133.061 46.9962 133.195 47.1818 133.256C48.8823 133.349 51.1497 134.52 52.0464 134.284C52.0464 134.633 51.2425 134.582 50.8921 134.284C50.8921 134.9 51.9227 134.664 52.3041 134.654V134.829C52.9534 134.829 53.3347 134.489 53.9737 134.551C54.8395 134.623 55.0044 135.116 56.169 135.137C55.8804 134.674 57.3439 135.27 57.7871 135.085C56.9317 134.952 57.4264 134.911 58.1169 134.983C58.8074 135.055 59.7041 135.106 59.6938 135.404C59.1579 135.342 59.0754 135.568 58.6631 135.609C59.5392 135.609 59.1269 135.722 59.2815 136.082C60.003 136.02 60.0751 136.267 60.5698 136.318C60.4977 136.041 59.8484 136.031 59.6217 135.835C59.7856 135.846 59.95 135.825 60.106 135.774C60.4668 135.897 60.7038 136.349 61.0645 135.99C61.0514 136.058 61.0591 136.129 61.0866 136.193C61.1142 136.257 61.1603 136.312 61.2191 136.349C59.9102 136.349 59.0033 136.431 58.1272 136.349C57.1423 136.233 56.1696 136.031 55.2208 135.743C54.4681 135.733 53.7198 135.626 52.9946 135.424C52.2393 135.241 51.4634 135.154 50.6859 135.168C50.6859 135.003 50.1706 134.993 50.2634 134.808C48.2021 134.561 46.3366 133.205 44.5845 133.328C45.0071 133.503 45.6152 133.585 45.6152 133.822C45.1205 133.709 42.8737 133.205 43.5539 132.794C43.1212 132.733 42.6985 132.615 42.2965 132.445C41.9461 132.712 43.0901 132.743 42.987 132.969C42.2759 132.763 40.6578 132.363 40.2971 131.725C39.0485 131.288 37.8297 130.769 36.6486 130.174C35.6772 129.719 34.7638 129.15 33.9277 128.479C33.6288 128.828 33.7215 128.16 33.4226 128.026C33.1238 127.893 33.3608 128.489 33.0825 128.335C32.8043 128.181 32.8867 128.335 32.763 128.253C32.1859 128.006 32.3611 127.77 32.0416 127.533C31.753 127.646 31.1037 127.174 30.5574 126.855C30.7739 126.228 29.5268 125.992 29.0218 125.632C27.8207 124.824 26.671 123.942 25.5794 122.992C24.456 122.046 23.3429 121.214 22.5493 120.526C23.6521 121.779 24.2602 121.882 25.1156 123.033C26.0458 123.538 26.9169 124.144 27.7129 124.841C28.5842 125.526 29.5038 126.148 30.4647 126.701C30.3307 126.876 30.5471 127.061 30.5265 127.246C30.2998 127.246 29.9288 127.05 29.6917 127.05C30.1452 127.544 31.9076 127.965 32.5775 128.951C32.7939 128.756 33.1753 129.146 33.4948 129.331C34.2369 129.044 36.4321 130.123 37.236 130.626C37.133 130.76 35.8859 130.01 36.2775 130.369C36.6692 130.729 37.1845 130.78 37.0608 131.027C36.7825 130.945 36.226 130.523 36.1332 130.688C36.5558 131.027 37.5968 131.335 37.1639 131.715C37.772 132.065 37.0917 131.314 37.7514 131.602C37.7514 131.674 37.8441 131.756 38.0193 131.818C38.0193 132.28 37.5865 132.085 37.3391 132.178C37.9266 132.702 38.1018 132.383 38.1945 132.28C38.5759 132.712 37.6689 132.404 37.9987 132.763C38.5077 133.121 39.0669 133.401 39.6581 133.595C39.5972 133.571 39.5425 133.534 39.4979 133.486C39.4534 133.438 39.4201 133.38 39.4004 133.318C39.658 133.472 40.1425 133.318 40.1837 133.606C39.9982 133.554 39.7405 133.431 39.6787 133.513C40.4826 134.068 41.9873 134.376 42.3996 134.952C42.8221 134.952 42.1934 134.602 42.6572 134.674C43.6054 134.87 43.389 135.25 43.9868 135.507C44.1104 135.414 43.9249 135.003 44.265 135.137C44.8113 135.383 45.8625 135.424 45.6564 135.805C45.4709 135.805 44.3887 135.548 44.7907 135.753C45.7595 135.835 46.3469 136.185 46.8519 135.928C47.4806 136.195 46.6149 136.349 47.2127 136.555C47.46 136.555 47.3157 136.236 47.6249 136.298C47.9341 136.359 49.4595 137.325 48.7277 136.75C49.3133 136.961 49.9124 137.133 50.521 137.264C50.521 137.151 50.521 136.935 50.7478 136.966C52.0262 137.338 53.3379 137.586 54.6642 137.706C55.9216 137.849 57.1378 138.014 58.3643 138.24C58.4364 138.096 58.1272 138.003 58.3643 137.983C59.1228 138.24 59.9452 138.24 60.7038 137.983C60.7038 138.106 60.6214 138.168 60.5286 138.24C61.26 138.183 61.9954 138.27 62.693 138.497C62.2292 138.836 61.3737 138.497 61.1779 139.052C62.3529 139.052 62.8579 138.353 64.1977 138.548C64.4245 138.363 63.7648 138.209 64.1977 138.199C64.3623 138.272 64.5423 138.303 64.722 138.291C64.9017 138.278 65.0755 138.222 65.2284 138.127C65.2284 138.425 65.7334 138.425 66.0838 138.528C67.3927 138.137 68.7119 138.651 69.8972 138.045C70.5671 138.045 71.3092 138.045 72.0821 138.045C72.8551 138.045 73.6487 137.839 74.4217 137.706C75.7917 137.461 77.142 137.118 78.4618 136.678C78.6577 136.883 79.3894 136.555 79.3791 136.914C80.2242 136.37 80.8839 136.76 81.4404 136.205C81.2446 136.205 81.0488 136.277 81.0694 136.123C81.4281 135.963 81.8007 135.836 82.1825 135.743C82.234 135.866 82.2443 136.031 82.5741 135.907C82.9348 135.229 84.3881 135.404 85.192 135.281C85.192 135.096 84.9137 135.178 84.7797 135.116C85.3981 134.911 86.5009 134.407 86.841 134.787C86.47 135.024 86.1608 134.644 86.0268 134.993C86.2535 134.942 86.2638 135.116 86.4287 135.126C88.0155 134.169 89.7246 133.429 91.5098 132.928C91.9221 132.774 91.9839 132.414 92.1591 132.342C92.6332 132.136 93.1898 132.342 93.9318 131.777C93.7875 131.869 94.1483 131.684 94.5296 131.479C94.6842 131.407 96.158 130.451 96.7146 130.595C96.8898 130.749 95.6015 131.284 96.0962 131.201C96.4537 130.927 96.859 130.722 97.2917 130.595C97.1268 130.421 97.2917 130.246 97.5082 130.112C97.7242 129.971 97.9723 129.887 98.2296 129.866C97.8483 130.266 97.199 130.626 97.1268 130.975C98.0132 130.41 99.4355 129.013 99.7447 129.763C99.7447 129.681 99.9405 129.516 100.033 129.588C99.5592 130.133 99.8993 130.143 99.487 130.616C100.191 129.859 101.048 129.26 102.002 128.859C102.936 128.495 103.706 127.805 104.166 126.917C104.3 127.03 104.166 127.194 104.238 127.307C104.671 126.999 104.465 126.793 105.083 126.454C105.156 126.609 105.351 126.454 105.434 126.629C105.761 126.394 106.047 126.105 106.279 125.776C105.702 126.259 105.331 126.311 105.063 126.146C106.042 125.571 106.238 124.934 107.33 124.646C106.732 124.995 107.093 125.16 106.495 125.509C106.753 125.571 106.887 125.9 107.361 125.509C107.361 125.396 107.114 125.293 107.279 125.139C107.423 125.499 109.34 124.276 110.02 123.618C109.938 123.249 109.536 123.711 109.412 123.454C109.721 123.304 109.998 123.094 110.226 122.838C110.113 123.228 110.226 123.136 110.453 123.341C110.917 123.023 110.453 122.971 110.783 122.683C110.999 122.94 111.576 122.211 111.814 122.314C112.164 121.594 112.483 121.615 112.566 121.851C112.875 121.235 113.122 121.122 113.256 120.608C113.597 120.536 113.329 120.7 113.514 120.855C113.743 120.513 114.07 120.248 114.452 120.094C114.576 119.848 114.565 119.622 114.668 119.365C115.009 119.262 115.184 118.892 114.978 119.365C116.39 118.08 116.008 116.96 116.822 116.426C116.4 115.933 117.111 115.512 117.698 115.172C117.698 114.874 117.152 115.296 117.431 114.957C117.878 114.698 118.237 114.312 118.461 113.847C118.76 113.909 118.513 114.227 118.595 114.381C118.709 114.001 119.172 113.662 119.141 113.518C119.005 113.66 118.822 113.747 118.626 113.765C118.873 113.457 118.812 113.282 119.172 112.902L119.378 113.066C119.853 111.638 121.388 110.271 121.44 109.542C121.687 109.059 121.831 109.377 122.048 109.141C122 109.116 121.947 109.103 121.893 109.103C121.839 109.103 121.786 109.116 121.739 109.141C121.842 108.73 123.408 107.353 122.47 108.021C122.924 107.353 123.336 107.322 123.408 106.809C123.192 107.137 123.006 107.024 123.192 106.675C123.192 106.952 123.357 106.932 123.583 106.521C123.596 106.225 123.67 105.935 123.8 105.668C123.8 106.172 124.336 105.072 124.387 104.836C124.305 104.939 124.212 105.123 124.14 105.082C124.284 104.774 124.583 103.911 124.903 103.777C124.965 103.921 124.594 104.343 124.717 104.445C125.15 104.024 124.995 103.736 125.243 103.202C125.861 103.202 125.645 101.527 126.273 101.651C125.922 102.128 125.712 102.694 125.665 103.284C125.552 103.777 125.428 104.199 124.923 104.384C125.336 104.641 124.789 104.99 124.542 105.719C124.882 105.719 124.542 106.048 124.666 106.182C125.129 105.534 124.831 105.709 124.861 105.504C124.892 105.298 125.212 104.98 125.356 105.195C125.263 105.37 125.099 105.606 125.171 105.678C125.47 105.031 125.748 104.774 126.006 104.764C126.16 104.344 126.364 103.944 126.614 103.572C126.961 102.96 127.264 102.325 127.521 101.671C127.521 101.322 127.17 101.774 127.356 101.219C128.665 99.3592 128.871 97.2426 129.592 95.6807C129.458 95.2698 129.005 95.804 129.273 95.0334C129.53 94.6738 129.654 94.8485 129.819 95.0334C130.025 93.4511 130.85 92.6599 131.324 91.0365C130.808 90.1631 132.076 88.0773 131.757 86.9265C131.735 87.6677 131.487 88.3848 131.045 88.9815C130.901 88.2828 131.282 86.3613 131.798 86.7209C131.715 85.7654 132.55 85.118 132.097 84.6659C132.725 84.594 133.014 82.6829 132.983 81.5835C132.983 81.7478 133.117 81.3471 133.169 80.9258C133.302 79.8162 133.488 78.5729 133.622 77.3502C133.69 76.4266 133.69 75.4994 133.622 74.5759C133.727 74.5514 133.836 74.5514 133.941 74.5759C133.859 73.5484 133.787 72.5209 133.715 71.4934C133.728 71.5043 133.744 71.5102 133.761 71.5102C133.778 71.5102 133.794 71.5043 133.807 71.4934C133.715 71.1052 133.657 70.7099 133.632 70.3118C133.632 69.9727 133.632 69.6234 133.55 69.2843C133.731 68.7518 133.848 68.2001 133.9 67.6403C133.9 67.9691 134.148 67.8355 134.106 68.2979C133.954 69.036 134.044 69.8035 134.364 70.4865C134.302 70.8358 134.22 70.8461 134.096 70.6611C134.313 72.6339 134.034 74.1033 134.405 75.9117C134.106 75.4596 134.106 77.5659 134.405 77.1036C134.113 78.4429 133.9 79.7981 133.766 81.1622C133.694 81.8814 133.643 82.6007 133.622 83.2788C133.622 83.6179 133.622 83.9467 133.622 84.255C133.622 84.5632 133.622 84.8612 133.622 85.1283C133.735 84.2858 134.24 82.8062 133.993 82.0458C134.313 82.4877 134.168 81.306 133.993 81.1827H134.251C134.764 77.5546 135.005 73.8934 134.972 70.2296ZM110.319 22.718C110.618 22.5844 110.803 23.0262 110.917 23.2625C110.752 23.3447 110.36 22.831 110.319 22.718ZM38.0296 128.489C38.0296 128.037 38.782 128.705 38.8541 128.581C39.2149 128.92 38.4007 128.725 38.0296 128.489ZM43.0283 131.417C43.2447 130.965 43.5127 131.561 44.0589 131.705C43.9868 131.869 43.3581 131.479 43.0283 131.417ZM44.2856 130.102C44.3578 129.876 45.038 130.102 45.1926 130.328C45.1102 130.503 44.5124 130.143 44.2856 130.102ZM55.0765 134.52C55.2904 134.473 55.5119 134.473 55.7258 134.52C55.7258 134.644 55.664 134.767 55.8495 134.798C55.7052 134.983 54.8188 134.746 55.0765 134.52ZM60.1267 135.486C60.0236 135.24 60.4565 135.322 60.4668 135.157C59.2094 134.849 57.8902 135.034 57.4985 134.325C58.2794 134.527 59.1019 134.502 59.869 134.253C60.0751 134.346 60.1679 134.5 60.4874 134.541C60.24 134.736 60.0957 134.664 59.6938 134.541C59.8072 134.88 60.2297 135.075 60.9409 135.126C61.0027 135.507 60.6729 135.548 60.1267 135.486ZM128.376 87.1936C128.572 87.1936 128.273 87.7588 128.263 87.9951C128.203 87.9081 128.161 87.8104 128.139 87.7074C128.201 87.5635 128.263 87.4299 128.314 87.2861C128.366 87.1422 128.355 87.2963 128.376 87.2347V87.1936ZM126.964 98.4858C126.737 98.871 126.547 99.277 126.397 99.6983C126.139 99.8935 125.872 99.6161 126.212 99.0715C126.48 99.7394 126.49 98.3523 126.964 98.4858ZM84.7075 130.77C84.7075 130.986 83.8933 131.119 83.5532 131.253C83.6769 130.78 84.0788 130.965 84.7075 130.77ZM76.5345 134.407C75.7713 134.437 75.007 134.416 74.2465 134.346C74.7 133.883 75.6379 134.089 76.5655 133.791C76.5448 133.996 76.3696 134.15 76.5242 134.407H76.5345ZM71.6905 134.469C71.5771 134.767 71.1546 134.469 71.0515 134.469C70.9484 134.469 71.4947 134.346 71.4947 134.181C72.0306 134.089 71.134 134.531 71.6802 134.469H71.6905ZM73.6075 134.356C73.5251 134.572 73.1128 134.664 73.0406 134.88C72.7933 134.654 71.6802 135.075 71.5668 134.746C72.3398 134.9 72.7624 134.315 73.5972 134.315L73.6075 134.356ZM72.4223 133.113C71.8333 133.283 71.2344 133.417 70.6289 133.513C70.2682 133.061 70.9897 132.907 71.8966 132.681C72.8036 132.455 73.9579 132.332 74.3496 132.208C75.0195 132.332 75.2153 132.66 74.3496 132.917C74.3496 132.845 74.4835 132.815 74.4629 132.722C73.4529 132.876 72.917 132.989 72.4119 133.113H72.4223ZM70.9072 134.541C69.7632 134.839 67.0938 134.849 67.7328 134.397C68.5367 134.715 69.5777 134.315 70.8969 134.541H70.9072ZM75.1844 132.486C75.0916 132.27 75.4627 132.208 75.7512 132.126C75.7536 132.196 75.7383 132.264 75.7067 132.326C75.6751 132.388 75.6283 132.441 75.5707 132.48C75.5131 132.519 75.4465 132.543 75.3771 132.549C75.3077 132.556 75.2379 132.544 75.1741 132.517L75.1844 132.486ZM76.349 129.845C75.3184 129.999 74.2156 130.102 73.3911 130.215C73.0303 130.359 73.5663 130.575 73.8858 130.492C73.7827 130.749 73.2571 130.564 72.9994 130.626C72.9994 130.472 73.154 130.421 73.0922 130.256C73.0303 130.092 72.3604 130.338 72.0615 130.338C73.0098 129.805 74.0668 129.492 75.1535 129.424L76.9674 129.229C77.6064 129.116 78.2969 128.961 79.0287 128.756C79.0287 128.879 79.0287 129.003 79.2348 128.972C78.8143 129.183 78.3764 129.359 77.9259 129.496L77.1735 129.712L76.349 129.845ZM41.3071 119.488C41.3708 119.468 41.4391 119.468 41.5029 119.488C41.5029 119.488 41.5029 119.488 41.5029 119.55L41.1628 119.467L41.3071 119.488ZM33.0619 115.984L32.9176 116.107L32.794 116.046L32.8661 115.953L32.9279 115.861L33.0619 115.984ZM59.4464 19.9951C59.2811 20.1148 59.0838 20.1827 58.8796 20.1903H58.7662C58.6062 20.1593 58.4418 20.1593 58.2818 20.1903C58.6292 20.0299 59.0157 19.9728 59.3949 20.0259L59.4464 19.9951ZM131.293 54.4061C131.342 54.5176 131.361 54.6404 131.346 54.7616C131.332 54.8827 131.285 54.9978 131.21 55.0945C131.097 54.6424 131.056 54.1492 130.911 53.6971C130.905 53.615 130.905 53.5326 130.911 53.4505C131.19 54.4575 130.808 54.3753 131.241 54.4369L131.293 54.4061ZM131.509 55.2178C131.509 55.5158 131.602 55.7315 131.653 55.9165H131.592C131.533 55.8391 131.481 55.7566 131.437 55.6699C131.303 55.4233 131.241 55.1973 131.458 55.2486L131.509 55.2178ZM130.942 76.97C130.958 76.8939 130.958 76.8155 130.942 76.7394C130.926 76.6634 130.895 76.5915 130.85 76.5282C130.857 76.1797 130.913 75.834 131.014 75.5006C131.066 75.6034 131.128 75.7164 131.179 75.8295C131.177 75.6328 131.156 75.4367 131.118 75.2438C131.114 75.2199 131.114 75.1957 131.118 75.1719C131.114 75.124 131.114 75.0759 131.118 75.028C131.129 74.9589 131.165 74.8965 131.221 74.8533C131.221 75.1616 131.458 75.1616 131.365 75.6753C130.716 76.3535 131.087 76.0041 130.891 77.0008L130.942 76.97ZM76.7819 20.8685C76.6788 20.8685 76.6273 20.8685 76.5964 20.8685L76.7922 20.8171C76.7922 20.8171 76.7407 20.8993 76.7304 20.8993L76.7819 20.8685ZM118.719 37.5037C118.451 37.5037 118.224 37.4112 118.204 37.0824C118.384 37.2116 118.556 37.3523 118.719 37.5037ZM130.705 71.9763L130.643 71.1852C130.648 71.1648 130.648 71.1438 130.643 71.1235C130.74 70.9202 130.881 70.7412 131.056 70.5995V71.4009C131.07 71.9791 131.121 72.5557 131.21 73.1271C131.076 73.1271 130.911 73.1271 130.932 73.4456C131.066 73.4456 131.262 73.4456 131.272 73.6101C131.24 74.0203 131.132 74.421 130.953 74.7917C130.799 73.8611 130.723 72.9194 130.726 71.9763H130.705ZM131.025 69.6747V69.8083C131.028 69.7577 131.05 69.7101 131.087 69.6747H131.025ZM122.47 41.5521C122.424 41.505 122.389 41.4479 122.367 41.3852C122.346 41.3225 122.34 41.2557 122.349 41.1902C122.358 41.1247 122.382 41.062 122.419 41.0072C122.456 40.9524 122.506 40.9067 122.563 40.8739C122.574 40.8685 122.587 40.8656 122.599 40.8656C122.612 40.8656 122.624 40.8685 122.635 40.8739C122.941 41.2484 123.21 41.6509 123.439 42.0761C123.099 42.1172 122.893 41.9836 122.491 41.5521H122.47ZM122.182 40.3601C122.041 40.3201 121.913 40.2455 121.808 40.1432C121.704 40.0409 121.627 39.9141 121.584 39.7745C121.8 39.9586 122.007 40.1541 122.202 40.3601H122.182ZM130.767 76.7028C130.798 76.9106 130.798 77.1218 130.767 77.3296C130.767 77.1241 130.767 76.9083 130.788 76.7028H130.767ZM132.715 61.5883C132.76 61.456 132.819 61.3286 132.89 61.2081C132.921 61.4211 132.869 61.6377 132.746 61.8144L132.715 61.5883ZM132.509 59.9751C132.503 59.9205 132.503 59.8654 132.509 59.8107C132.582 59.9065 132.638 60.0143 132.674 60.1293C132.619 60.0849 132.57 60.033 132.529 59.9751H132.509ZM131.983 58.2078C131.767 58.6805 132.076 59.2353 132.241 59.184C132.241 59.3895 132.158 59.4614 132.086 59.4717L131.87 59.1942C131.875 59.1361 131.875 59.0777 131.87 59.0196C131.789 58.9197 131.699 58.8269 131.602 58.7421C131.556 58.6712 131.518 58.5954 131.489 58.5161C131.416 58.3414 131.612 58.1154 131.839 58.1359H132.004L131.983 58.2078ZM130.757 53.5122C130.757 53.5122 130.757 53.5121 130.757 53.4608C130.737 53.4042 130.737 53.3427 130.757 53.2861V53.5122ZM60.3946 20.2623C60.2997 20.2586 60.2073 20.2302 60.1267 20.18L60.3946 20.2623ZM81.327 130.986C81.4507 131.356 80.8632 131.068 80.451 131.314C80.585 131.016 80.9251 130.996 81.327 130.955V130.986ZM115.091 114.792C115.266 115.08 114.648 115.275 114.287 115.82C114.174 115.707 114.009 115.82 113.906 115.717C114.275 115.378 114.672 115.068 115.091 114.792ZM115.895 113.765C115.977 113.857 116.07 113.939 116.204 113.765C116.41 113.929 115.751 114.597 115.514 114.689C115.4 114.515 115.544 114.186 115.895 113.765ZM128.654 86.4333H128.747C128.644 86.6696 128.603 86.6901 128.551 86.649C128.5 86.6079 128.623 86.536 128.654 86.4435V86.4333ZM130.551 79.8984C130.551 79.7751 130.551 79.6415 130.551 79.5284C130.598 79.4851 130.65 79.4472 130.705 79.4154C130.679 79.5866 130.627 79.7529 130.551 79.9086V79.8984ZM130.87 78.8708C130.87 78.6654 130.808 78.3982 130.788 78.1105C130.841 77.8472 130.927 77.5916 131.045 77.3502C130.987 77.848 130.959 78.349 130.963 78.8503L130.87 78.8708ZM132.931 64.6092C133.01 64.1812 133.01 63.7425 132.931 63.3145C133.406 63.4994 133.21 64.6605 132.931 65.0715C133.004 64.9071 132.973 64.753 132.952 64.5989L132.931 64.6092ZM132.797 62.1534C132.977 62.4469 133.086 62.7772 133.117 63.1193C132.828 63.3042 132.725 62.3898 132.818 62.1432L132.797 62.1534ZM131.561 54.0054L131.221 54.0978C131.097 53.8204 131.293 53.3478 131.004 53.2861C130.942 52.721 131.221 53.4197 131.303 53.3683C131.303 53.1628 131.231 53.0292 131.087 52.8751L131.251 52.721C131.509 53.0934 131.626 53.5448 131.581 53.9951L131.561 54.0054ZM130.891 51.2105C130.777 51.2105 130.716 50.9023 130.654 50.666C130.696 50.6572 130.736 50.6399 130.772 50.6151C130.807 50.5904 130.837 50.5588 130.86 50.5221C131.087 50.9742 130.88 50.9331 130.911 51.2003L130.891 51.2105ZM129.479 49.5871C129.501 49.5745 129.526 49.5678 129.551 49.5678C129.576 49.5678 129.601 49.5745 129.623 49.5871C129.771 49.674 129.9 49.7913 129.999 49.9312C130.098 50.0711 130.167 50.2305 130.2 50.3988C130.219 50.473 130.264 50.5382 130.326 50.5832C130.388 50.6282 130.464 50.6502 130.54 50.6454C130.574 50.7975 130.595 50.9522 130.602 51.1078C130.509 51.1078 130.53 51.2722 130.479 51.3236C130.262 50.5735 129.84 50.8304 130.345 51.19L130.406 51.4982C130.128 51.5136 129.85 51.5136 129.572 51.4982C129.518 51.4661 129.472 51.4211 129.44 51.3674C129.408 51.3136 129.389 51.2527 129.386 51.19C129.386 50.9434 129.675 50.6968 129.633 50.4913C129.592 50.2858 129.293 50.0803 129.355 49.7721C129.363 49.7307 129.38 49.6917 129.405 49.6579C129.43 49.6241 129.462 49.5964 129.499 49.5768L129.479 49.5871ZM126.531 44.1516C126.484 44.1264 126.43 44.1133 126.377 44.1133C126.323 44.1133 126.27 44.1264 126.222 44.1516C126.169 44.0156 126.104 43.8848 126.026 43.7612C126.026 43.6481 126.026 43.5454 126.026 43.4426L126.531 44.1516ZM115.318 28.8213L115.514 29.0576C115.514 29.0576 115.514 29.0577 115.514 29.1296C115.153 29.0577 114.978 28.585 114.761 28.1021C114.936 28.3487 115.132 28.585 115.338 28.8111L115.318 28.8213ZM109.34 26.9204C109.372 26.9485 109.397 26.9837 109.412 27.0232L109.196 26.9307C109.204 26.9166 109.215 26.9046 109.228 26.8956C109.241 26.8866 109.257 26.8808 109.273 26.8788C109.289 26.8768 109.305 26.8786 109.321 26.8841C109.336 26.8895 109.349 26.8985 109.361 26.9102L109.34 26.9204ZM57.0141 20.3958V20.6116C57.0848 20.6143 57.1545 20.5949 57.2136 20.5563C57.2727 20.5176 57.3183 20.4615 57.3439 20.3958H58.189C58.0703 20.6068 57.8956 20.781 57.684 20.8993C57.3542 21.1151 57.1172 20.9918 57.0038 20.6424C56.8816 20.6664 56.7636 20.708 56.6534 20.7657C56.1071 21.0432 55.9113 21.0329 55.6227 20.663C56.0769 20.5008 56.5528 20.4073 57.0347 20.3855L57.0141 20.3958ZM52.9843 21.0329C53.4258 20.9468 53.8743 20.9021 54.3241 20.8993C54.1953 21.0001 54.0343 21.0512 53.8706 21.0431C53.7367 21.0431 53.5511 21.0431 53.4893 21.1253C53.0255 21.7213 52.2731 21.2281 51.7681 21.598C51.7178 21.6493 51.6564 21.6884 51.5887 21.7125C51.5209 21.7366 51.4485 21.745 51.377 21.7371C51.3055 21.7292 51.2368 21.7051 51.1759 21.6668C51.1151 21.6284 51.0639 21.5768 51.0261 21.5158C51.6734 21.3058 52.3346 21.141 53.0049 21.0226L52.9843 21.0329ZM18.7463 103.706C18.6844 103.706 18.6226 103.5 18.6432 103.397C18.6525 103.343 18.6776 103.293 18.7153 103.253L18.8184 103.099C18.892 103.189 18.9448 103.295 18.973 103.408C18.9936 103.562 18.973 103.757 18.7463 103.706ZM20.6323 108.843C20.6323 108.936 20.488 108.997 20.4159 109.079C20.3438 109.162 20.3025 108.987 20.2922 108.925C20.2819 108.864 20.2922 108.566 20.2922 108.381L20.0243 108.247V108.114C20.2407 108.114 20.2613 108.237 20.2716 108.381C20.5499 108.411 20.7045 108.566 20.622 108.874L20.6323 108.843ZM21.8794 109.973L21.5599 109.788C21.6733 109.727 21.7867 109.624 21.9 109.634C22.0134 109.644 22.1165 109.747 22.2298 109.809L21.8794 109.973ZM22.7142 110.857C22.7142 111.011 22.7142 111.165 22.4566 111.124C22.4566 111.124 22.4566 111.001 22.4566 110.99C22.5452 110.938 22.6383 110.893 22.7349 110.857C22.7043 110.737 22.7033 110.612 22.7321 110.492C22.7608 110.372 22.8183 110.261 22.8998 110.169C23.0234 110.055 23.4254 110.055 23.4151 110.169C23.4092 110.275 23.3735 110.379 23.312 110.466C23.1574 110.651 23.0234 110.878 22.7349 110.857H22.7142ZM24.3427 111.237C24.0541 111.895 23.446 112.408 23.3842 113.179C23.3842 113.179 23.1368 113.282 23.0337 113.251C22.9307 113.22 22.7761 113.066 22.7864 113.004C22.988 112.232 23.338 111.506 23.817 110.867C23.817 110.867 24.0747 110.867 24.1984 110.867L24.3014 110.96C24.322 111.145 24.3633 111.217 24.3324 111.268L24.3427 111.237ZM30.5265 116.375C30.4544 116.529 30.3513 116.59 30.1967 116.539C30.2172 116.465 30.2596 116.399 30.3185 116.349C30.3774 116.3 30.4499 116.269 30.5265 116.262C30.877 116.2 31.0315 116.416 30.9903 116.724C30.9903 116.724 30.9903 116.796 30.9903 116.827C30.9903 116.858 30.7327 116.57 30.5059 116.375H30.5265ZM33.1031 117.012V116.929L33.1959 116.981L33.1031 117.012ZM47.0065 127.842C45.7284 127.189 44.3702 126.705 42.9664 126.403C42.448 126.138 41.9456 125.843 41.4617 125.519L41.2865 125.406L41.9873 125.56C42.5542 125.673 43.1004 125.797 43.6467 125.961C44.2486 126.119 44.8377 126.321 45.409 126.567C46.4397 126.105 47.9238 127.955 48.9132 127.811C48.5216 127.184 50.1809 127.687 51.1497 127.811C50.9951 128.088 51.1497 128.448 51.1497 128.961C49.7246 128.775 48.3311 128.398 47.0065 127.842ZM66.2899 131.068C66.5991 130.883 66.7949 131.273 67.3206 131.191C67.3206 131.099 67.135 131.13 67.0217 131.119C66.9083 131.109 67.4649 131.058 67.4545 130.914C67.4442 130.77 66.5167 130.914 66.1147 130.914C66.7228 130.472 68.2378 130.513 68.7325 130.236C68.7714 130.267 68.8027 130.307 68.8242 130.353C68.8456 130.398 68.8568 130.447 68.8568 130.498C68.8568 130.548 68.8456 130.597 68.8242 130.642C68.8027 130.688 68.7714 130.728 68.7325 130.76C68.8871 131.047 69.0623 130.76 69.3406 130.893C69.7426 130.76 68.8562 130.749 69.0005 130.482C70.1342 130.4 70.4022 130.482 70.8969 130.184C71.3813 130.256 70.8969 130.328 71.7833 130.184C71.9482 130.76 70.866 130.462 70.5053 130.688C71.0515 131.058 72.381 130.092 72.4635 130.688C71.9749 130.743 71.4898 130.826 71.0103 130.934L69.4437 131.171C68.3949 131.328 67.3261 131.294 66.2899 131.068ZM66.63 134.623C66.4857 134.9 66.9908 134.767 67.269 134.767C66.5121 134.916 65.7421 134.988 64.9707 134.983C64.0225 134.983 62.9815 134.9 62.054 134.983C63.1671 134.315 64.9604 134.931 66.63 134.623ZM61.5799 135.198C62.4765 135.342 62.693 135.291 63.6412 135.373C62.7548 134.931 65.6303 135.157 65.8674 135.373C65.0587 135.572 64.2202 135.621 63.3938 135.517C62.6743 135.425 61.944 135.467 61.2398 135.64C61.1161 135.342 61.5077 135.342 61.5799 135.198ZM61.0749 135.969C61.2088 135.671 61.6417 135.887 61.8788 135.969C61.8375 136.205 61.1676 136.02 61.0749 135.969ZM71.9482 136.452V136.185L71.7317 136.236L70.6392 136.39C69.8869 136.483 69.0933 136.565 68.2894 136.616C66.6483 136.776 64.9938 136.735 63.3629 136.493C63.1877 136.493 63.2495 136.657 63.0331 136.657C62.7046 136.613 62.3805 136.541 62.0643 136.442C62.0643 136.175 62.8682 136.329 63.3629 136.318C63.3629 136.195 63.3629 136.072 63.198 136.051C65.4524 136.089 67.7036 135.868 69.9075 135.394C70.3713 135.409 70.8258 135.529 71.237 135.743C71.7008 135.63 71.103 135.466 71.1855 135.311C71.5771 135.219 71.9585 135.568 72.144 135.311C72.6181 135.311 72.3501 135.414 72.3604 135.64C72.9654 135.4 73.5996 135.241 74.2465 135.168C74.3599 134.859 73.7209 135.116 73.422 135.168C74.0483 134.818 74.7788 134.702 75.4833 134.839C75.6688 135.147 74.8443 135.517 75.7512 135.404C75.1019 135.825 73.1746 135.527 72.886 135.948C74.1434 135.948 76.2459 135.322 77.0086 135.733C75.3081 136.37 73.7724 136.061 71.9482 136.452ZM79.3173 134.397C79.3173 134.243 79.0802 134.263 79.0699 134.099C79.6677 133.852 79.6059 134.233 80.2036 133.986C80.0902 134.13 79.5543 134.222 79.3173 134.366V134.397ZM83.5532 132.815C81.6465 133.113 79.9975 133.606 78.0599 133.996C78.1217 134.14 78.5958 133.914 78.7195 133.996C78.7195 134.274 77.8022 134.397 77.761 134.13C77.3591 134.376 77.3384 134.459 77.5858 134.777C76.8643 134.592 76.72 134.376 76.9674 134.171C77.5403 133.886 78.1569 133.699 78.7916 133.616C78.6267 133.524 78.266 133.616 77.9774 133.616C77.8434 133.369 78.668 133.369 78.6886 133.164C78.905 133.164 78.8638 133.349 78.9256 133.462C80.3994 132.989 80.5025 132.928 82.1103 132.434C82.4092 132.702 82.8833 132.229 83.2853 132.434C83.6769 132.249 82.7596 132.383 83.1822 132.106C84.2747 131.88 84.2128 132.106 85.3465 131.582C85.2847 131.335 84.4087 132.034 84.5117 131.582C85.1447 131.478 85.7447 131.228 86.2638 130.852C86.3165 130.918 86.3452 130.999 86.3452 131.083C86.3452 131.167 86.3165 131.249 86.2638 131.314C86.6658 131.191 86.707 131.016 86.5833 130.821C86.7773 130.697 86.9984 130.621 87.2279 130.6C87.4574 130.578 87.6888 130.612 87.9025 130.698C87.3563 131.664 84.4396 132.106 83.5532 132.784V132.815ZM97.8689 128.972C97.8689 128.52 98.5079 128.479 98.8995 128.068C98.9923 128.304 98.1678 128.643 97.8689 128.941V128.972ZM102.424 128.006C102.156 128.653 102.177 127.893 101.754 128.222C101.754 128.098 102.064 127.944 102.27 127.79C102.332 127.903 102.393 128.016 102.569 127.924C102.589 127.985 102.445 128.016 102.424 127.975V128.006ZM101.899 126.691L102.466 126.331L102.61 126.547C102.321 126.66 101.991 126.876 101.899 126.66V126.691ZM102.548 126.177C102.435 125.982 102.888 125.704 103.239 125.447L103.403 125.663C103.152 125.877 102.862 126.041 102.548 126.146V126.177ZM102.311 125.756C101.456 126.352 100.569 126.906 100.126 127.287C100.178 126.937 100.92 126.372 101.806 125.766C102.692 125.16 103.661 124.41 104.31 123.886C103.728 124.584 103.056 125.203 102.311 125.725V125.756ZM108.443 124.451C108.144 124.266 108.103 124.266 108.175 123.886C108.495 123.834 109 123.978 108.412 124.42L108.443 124.451ZM108.938 123.732C108.794 123.732 108.577 123.906 108.505 123.732C108.66 123.68 108.814 123.629 108.773 123.526C108.917 123.423 108.969 123.526 109.134 123.434C109.116 123.485 109.112 123.54 109.121 123.594C109.13 123.648 109.152 123.699 109.185 123.742C109.02 123.834 108.752 123.875 108.938 123.701V123.732ZM111.309 122.54C111.309 122.416 111.576 122.201 111.752 122.016C111.659 121.954 111.473 122.17 111.309 122.293C111.144 122.416 111.484 121.738 111.071 122.046C111.071 121.831 111.772 121.779 111.999 121.779C111.576 122.18 111.855 122.211 111.309 122.509V122.54ZM114.287 117.402L114.483 117.577L113.916 118.193C113.689 118.06 114.153 117.669 114.287 117.402ZM115.215 118.43C115.318 118.029 115.05 118.337 114.741 118.686C114.617 118.306 115.483 117.957 115.833 117.659C115.967 117.793 115.38 118.204 115.215 118.46V118.43ZM115.72 116.179C115.675 116.615 115.519 117.032 115.269 117.391C115.018 117.75 114.681 118.04 114.287 118.234C114.4 117.751 115.431 117.094 115.07 116.467C116.101 115.522 116.75 114.587 117.317 114.207C117.223 114.641 117.03 115.047 116.753 115.395C116.476 115.742 116.123 116.021 115.72 116.21V116.179ZM118.698 112.768C118.121 113.415 117.802 113.57 117.565 114.227L117.224 113.96C117.905 113.333 118.43 112.224 119.214 111.494C119.224 112.018 118.554 112.337 118.719 112.799L118.698 112.768ZM125.562 102.051C125.263 102.051 125.449 101.671 125.16 101.671C125.408 101.507 125.634 100.644 125.913 100.911C125.727 100.572 126.356 99.9346 126.624 99.4003C126.098 100.407 126.047 101.435 125.562 102.082V102.051ZM125.676 104.949C125.542 104.877 125.408 104.949 125.263 105.123C125.109 105.01 125.315 104.671 125.542 104.312C125.542 104.651 125.758 104.312 125.768 104.62C125.964 104.353 126.181 103.675 126.356 103.952C126.073 104.254 125.843 104.601 125.676 104.98V104.949ZM126.593 103.12C126.593 102.586 126.809 102.483 127.108 102.041C127.139 102.596 126.892 102.699 126.593 103.151V103.12ZM127.191 96.9549C127.151 96.6692 127.201 96.3783 127.335 96.1226C127.582 96.1842 127.428 96.8007 127.191 96.9651V96.9549ZM127.046 94.6121C127.046 94.1806 127.273 94.0265 127.417 93.3586C127.665 93.4614 127.242 94.4375 127.046 94.6224V94.6121ZM127.922 91.1187C128.16 91.3447 127.685 91.7352 127.716 92.2489C127.356 92.29 127.861 91.4988 127.922 91.1598V91.1187ZM127.922 93.8621C127.875 93.2429 127.938 92.6202 128.108 92.0229C128.17 92.29 128.015 93.1531 128.397 92.2797C128.634 92.6188 127.995 93.2867 127.881 93.8724L127.922 93.8621ZM129.17 86.7312C128.973 87.7117 128.901 88.7126 128.953 89.711C128.881 90.0809 128.665 89.8137 128.582 90.1117C129.036 89.9679 128.726 91.1392 128.5 91.9715C128.221 91.8276 128.077 91.8276 128.056 91.6632C128.238 91.3791 128.321 91.0434 128.294 90.7077C127.974 91.0981 128.149 90.1631 127.943 90.1014C128.087 89.7932 128.17 89.8138 128.242 90.0192C128.355 88.8068 128.943 87.4094 129.036 86.2072C129.128 86.2072 129.159 86.5257 129.293 86.2586C128.933 86.4435 129.365 85.714 129.149 85.7346C129.036 85.9092 128.963 85.8476 128.922 85.7346C129.046 85.3647 129.17 84.9948 129.273 84.6146C129.592 84.5016 129.118 85.303 129.345 85.303C129.479 84.594 130.107 83.5152 129.798 83.248C129.602 83.9467 129.623 84.2755 129.293 84.5735C129.293 84.5735 129.293 84.5735 129.293 84.5118C129.444 83.8813 129.561 83.2434 129.644 82.6007C129.779 82.5938 129.906 82.5391 130.004 82.4466C130.108 82.6391 130.169 82.851 130.185 83.0687C130.201 83.2863 130.171 83.505 130.097 83.7104C129.94 84.1421 129.856 84.5971 129.85 85.0564C129.807 85.1528 129.745 85.2392 129.667 85.31C129.589 85.3808 129.497 85.4345 129.396 85.4674C129.511 86.1794 129.455 86.9084 129.231 87.5943C128.902 87.6046 129.304 86.8545 129.128 86.7415L129.17 86.7312ZM129.17 94.8074C129.448 94.2628 129.252 93.9854 129.572 93.6977C129.943 93.636 129.407 95.1259 129.118 94.8177L129.17 94.8074ZM129.592 93.3483C129.963 93.112 130.252 92.4339 130.623 92.4441C130.293 93.0504 129.984 93.636 129.541 93.3586L129.592 93.3483ZM133.467 64.753C133.54 64.4961 133.54 65.4517 133.643 66.0785C133.251 65.9244 133.344 65.164 133.467 64.7633V64.753Z" fill="white"/>
<path fill-rule="evenodd" clip-rule="evenodd" d="M37.8956 12.5149C37.6483 12.8951 36.0508 13.3883 35.958 13.5424C36.2672 13.5116 38.4109 12.5868 37.8956 12.5149Z" fill="white"/>
<path fill-rule="evenodd" clip-rule="evenodd" d="M72.6596 0.565128C72.5462 0.359628 71.6908 0.472649 71.6289 0.287699C72.7214 0.0513738 73.4223 0.801455 74.5251 0.904205C74.5251 0.801455 74.5251 0.647319 74.7312 0.667869C74.8672 0.828215 75.0271 0.966834 75.2053 1.07888C76.3802 1.0275 78.5549 1.72621 79.534 1.41796C79.2866 1.22273 78.2869 1.14052 78.9156 0.945298C78.0602 0.770623 78.7713 1.18162 78.3384 1.20217C78.3384 1.13025 78.2148 1.07887 78.0086 1.05832C78.3178 0.708974 76.8852 0.821999 76.3184 0.544574C75.8855 0.595949 76.5967 0.852821 76.1019 0.863096C75.7515 0.513746 75.0713 0.359628 75.0713 0.708978C75.1847 0.595953 73.6902 0.565133 74.2365 0.328808C73.216 0.138983 72.1822 0.0290405 71.1445 0C71.2785 0.318525 71.1445 0.215779 71.2888 0.534304C71.9691 0.390454 72.2061 0.667878 72.6596 0.565128Z" fill="white"/>
<path fill-rule="evenodd" clip-rule="evenodd" d="M92.3857 13.8302C92.8186 14.016 93.2669 14.1638 93.7256 14.272C93.3855 14.0973 92.6125 13.7069 92.3857 13.8302Z" fill="white"/>
<path fill-rule="evenodd" clip-rule="evenodd" d="M98.7964 14.1589C98.6315 14.426 97.9718 13.8815 97.6523 13.8917C97.8276 14.2205 99.1365 14.5596 98.7964 14.1589Z" fill="white"/>
<path fill-rule="evenodd" clip-rule="evenodd" d="M103.259 11.5387C103.331 11.4154 103.692 11.7442 103.795 11.662C103.537 11.549 103.465 11.0764 103.795 11.2716C103.98 11.549 104.207 11.3641 104.65 11.4668C103.815 11.1894 102.589 10.3674 102.218 10.5215C102.867 10.6448 103.63 11.3641 103.259 11.5387Z" fill="white"/>
<path fill-rule="evenodd" clip-rule="evenodd" d="M103.6 20.1801C103.383 20.3547 103.703 20.6013 104.074 20.8582C103.981 20.4369 104.857 21.2795 104.476 20.8582C104.156 20.6322 103.991 20.7041 104.032 20.4164C104.094 20.4164 104.218 20.4164 104.084 20.3445C103.949 20.3812 103.807 20.3812 103.672 20.3445C103.703 20.2623 103.713 20.2623 103.6 20.1801Z" fill="white"/>
<path fill-rule="evenodd" clip-rule="evenodd" d="M104.743 21.2898C105.465 22.1324 106.33 23.5092 107.237 23.6325C107.165 23.54 107.011 23.427 107.062 23.3654C107.433 23.6531 107.66 23.5298 108.093 24.0641C108.278 23.9202 108 23.6736 107.804 23.4476C107.217 23.1804 105.135 21.8138 105.32 21.2898C105.135 21.2898 104.887 21.1357 104.743 21.2898Z" fill="white"/>
<path fill-rule="evenodd" clip-rule="evenodd" d="M110.793 18.3512C111.02 18.906 112.792 19.8514 112.782 20.4781C113.071 20.7556 113.256 20.7042 113.596 21.1049C113.442 21.1049 113.256 21.1049 113.102 21.1049C113.393 21.2879 113.668 21.494 113.926 21.7214C114.184 21.968 114.441 22.2351 114.709 22.5126C115.225 23.0777 115.74 23.7045 116.276 24.3313C117.249 25.5283 118.318 26.645 119.471 27.6706C119.574 28.6981 121.027 29.0269 120.883 29.7975C121.027 29.5407 120.945 29.6023 121.223 29.5304C120.393 28.8973 119.83 27.9772 119.646 26.9514C119.646 26.9514 119.646 26.9514 119.646 26.8075C119.636 26.8549 119.636 26.904 119.646 26.9514C119.749 27.0233 120.265 26.8794 120.285 27.4343C120.584 27.4959 120.285 26.8692 120.553 27.2082C120.642 27.5245 120.704 27.8476 120.739 28.1741C120.977 28.4271 121.232 28.6639 121.501 28.8831C121.44 28.9653 121.295 29.0166 121.398 29.181C121.708 28.7495 122.037 29.8078 122.192 30.0852C122.254 29.6537 121.635 28.8831 121.738 28.4721C121.419 28.5337 121.512 28.246 121.151 27.8453C121.213 27.7528 121.357 27.7117 121.244 27.537C121.13 27.3624 120.914 26.7972 120.44 26.6328C120.615 26.9514 120.553 27.013 120.337 26.9411C119.935 26.1705 119.11 25.5642 118.77 24.6395C118.348 24.9066 118.1 24.2799 117.74 23.7353C117.626 23.8072 117.544 24.0025 117.368 23.8483C117.193 23.6942 117.307 23.4373 117.265 23.2318C117.451 23.4579 118.08 23.8689 117.812 23.427C117.616 23.5812 117.059 22.5023 116.863 22.6564C117.131 22.9236 117.183 23.1085 117.028 23.2216C116.894 22.7592 116.647 23.0777 116.255 22.5228C116.049 22.6359 115.853 22.8003 115.596 22.7078C115.596 22.0913 114.823 22.1427 114.421 21.6803C114.214 21.2857 114.142 20.835 114.215 20.3959C113.782 20.0671 113.699 19.913 113.524 19.8822C113.761 20.1288 113.617 20.2829 113.668 20.4781C112.941 20.0171 112.296 19.437 111.762 18.7622C111.578 18.7868 111.391 18.7617 111.221 18.6893C111.05 18.617 110.902 18.5002 110.793 18.3512ZM117.595 24.8142C117.847 24.9539 118.065 25.1468 118.234 25.3793C118.141 25.8314 117.616 24.6703 117.523 25.1121C117.399 24.958 117.544 24.8964 117.595 24.8142Z" fill="white"/>
<path fill-rule="evenodd" clip-rule="evenodd" d="M110.123 25.7389C110.258 25.9718 110.302 26.2463 110.247 26.5096C110.484 26.8589 110.577 26.6123 110.793 26.8383C110.68 26.9411 110.711 27.085 110.793 27.2494C111.092 26.7356 110.288 26.3451 110.422 25.8417C110.37 25.9239 110.216 25.6978 110.123 25.7389Z" fill="white"/>
<path fill-rule="evenodd" clip-rule="evenodd" d="M128.439 43.6378C128.377 42.7542 129.016 43.8947 129.078 43.3399C128.789 43.4426 128.521 42.8364 128.232 42.7953C128.624 43.3193 128.16 43.196 128.439 43.6378Z" fill="white"/>
<path fill-rule="evenodd" clip-rule="evenodd" d="M128.675 46.6485C128.552 46.6485 128.438 46.4943 128.294 46.6485C128.49 47.0903 128.345 47.2444 128.345 47.5218C128.449 47.4499 128.809 48.2514 128.706 47.7376C128.222 47.1519 128.768 47.0286 128.675 46.6485Z" fill="white"/>
<path fill-rule="evenodd" clip-rule="evenodd" d="M123.872 106.932C124.181 106.726 124.635 106.778 124.521 106.706C124.666 106.254 124.089 106.572 123.872 106.932Z" fill="white"/>
<path fill-rule="evenodd" clip-rule="evenodd" d="M118.327 114.844C117.894 115.368 117.358 115.604 117.379 116.056C117.677 115.871 118.285 115.316 118.172 115.82C118.265 115.388 119.502 114.587 119.203 114.638C118.842 114.905 117.966 115.563 118.327 114.844Z" fill="white"/>
<path fill-rule="evenodd" clip-rule="evenodd" d="M124.294 121.666C124.294 121.862 124.294 121.851 124.191 122.57C124.696 121.882 125.15 121.214 124.861 120.885C124.717 121.122 124.13 121.564 124.294 121.666Z" fill="white"/>
<path fill-rule="evenodd" clip-rule="evenodd" d="M102.733 129.948C102.506 130.133 102.29 130.071 102.3 130.215C102.898 130.04 101.806 130.667 101.847 130.801C102.238 130.688 103.176 130.04 102.981 129.999C102.372 130.39 102.599 130.205 102.733 129.948Z" fill="white"/>
<path fill-rule="evenodd" clip-rule="evenodd" d="M82.9252 138.014C83.1725 138.014 83.5745 137.921 83.6775 138.086C82.8839 138.332 81.6162 138.158 81.9976 138.528C82.2346 138.26 83.0282 138.363 83.2447 138.466C83.389 138.23 84.9246 137.531 84.4505 137.685C83.7291 138.055 83.1622 137.736 82.9252 138.014Z" fill="white"/>
<path fill-rule="evenodd" clip-rule="evenodd" d="M78.9047 138.24C78.9047 138.651 78.276 139.113 78.9769 139.267C78.8841 139.113 79.1624 139.062 79.2551 138.939C78.7089 138.846 78.781 138.332 79.7705 138.178C79.8735 137.87 79.2242 138.199 78.9047 138.24Z" fill="white"/>
<path fill-rule="evenodd" clip-rule="evenodd" d="M75.9474 139.093C75.597 139.236 76.3287 139.391 76.2257 139.668L75.5455 139.781L75.463 139.349C74.9477 139.709 73.9376 139.771 74.3705 140.048C74.2227 140.012 74.0683 140.013 73.9209 140.051C73.7735 140.088 73.6377 140.162 73.5254 140.264C74.8446 140.192 75.1744 139.812 76.2669 139.843C76.2669 139.73 76.2669 139.627 76.5761 139.606C76.0505 139.452 76.5349 139.072 75.9474 139.093Z" fill="white"/>
<path fill-rule="evenodd" clip-rule="evenodd" d="M68.6299 144.025C68.97 144.138 69.8357 143.953 69.5781 144.405C70.8767 144.282 69.0524 143.706 68.6299 144.025Z" fill="white"/>
<path fill-rule="evenodd" clip-rule="evenodd" d="M61.4873 139.38C61.6646 139.419 61.8349 139.485 61.9923 139.576C63.8784 139.504 61.8583 139.37 61.4873 139.38Z" fill="white"/>
<path fill-rule="evenodd" clip-rule="evenodd" d="M60.4567 139.771C60.601 140.038 61.374 140.141 61.8172 140.1C61.6935 139.904 61.0751 139.75 61.4874 139.555C60.7998 139.487 60.106 139.514 59.4261 139.637C59.9311 139.956 58.9211 139.935 59.2406 140.059C59.5802 139.96 59.9432 139.978 60.2712 140.11C60.498 139.904 60.1991 139.843 60.4567 139.771Z" fill="white"/>
<path fill-rule="evenodd" clip-rule="evenodd" d="M58.1166 138.959C58.1166 139.175 57.8384 139.216 57.591 139.257C57.591 139.072 56.849 139.134 56.7665 138.969C56.5707 139.031 56.6841 139.288 56.2306 139.165C53.8248 138.869 51.4395 138.427 49.0882 137.839L45.9963 137.027L44.3575 136.586L42.6157 135.979C42.5024 136.555 42.0901 135.712 41.75 135.866C41.9355 136.411 42.3169 136.452 43.0589 136.894C43.2857 136.678 42.6879 136.575 42.6776 136.39C42.8384 136.452 43.0104 136.48 43.1826 136.473C42.8528 136.76 43.9453 137.007 43.3578 137.089C44.5637 137.418 45.9241 137.593 47.3979 137.911C48.14 138.055 48.9027 138.219 49.7169 138.415L50.964 138.713L52.2832 138.969C52.2832 138.815 52.4481 138.764 52.6645 138.764C53.0356 139.041 53.0974 138.908 53.8292 139.021C53.6024 139.247 53.6849 139.329 54.1177 139.504C54.1177 139.411 54.1177 139.257 54.3136 139.267C55.3383 139.402 56.3726 139.45 57.4055 139.411C58.1077 139.387 58.8023 139.259 59.4668 139.031C59.1988 139.082 58.5083 138.928 58.1166 138.959Z" fill="white"/>
<path fill-rule="evenodd" clip-rule="evenodd" d="M36.5557 124.708C37.1431 124.934 37.7924 125.376 37.1225 125.273C37.442 125.52 37.8543 125.797 38.1532 125.643C38.5757 126.044 38.6273 126.67 39.2869 126.845C39.2713 126.911 39.2365 126.97 39.187 127.016C39.1374 127.061 39.0753 127.091 39.0086 127.102C39.493 127.256 39.7507 127.102 40.1526 127.102C40.4 127.256 40.1526 127.461 40.6061 127.595C40.8225 127.441 41.6367 127.595 42.3376 127.914C42.2904 127.944 42.2571 127.992 42.2448 128.047C42.2448 128.16 42.317 128.273 42.3479 128.396C42.42 128.325 42.5334 128.253 42.5437 128.181C42.5545 128.116 42.5545 128.05 42.5437 127.985C43.3579 128.314 44.0485 128.746 43.7599 128.91C44.1873 129.033 44.6071 129.18 45.0173 129.352C44.9657 129.352 44.9142 129.434 44.8627 129.475C44.8111 129.516 44.8627 129.681 44.9863 129.732C45.3574 129.825 45.8006 129.732 46.0994 130.061C46.4499 129.814 46.7487 129.927 47.1301 130.061C47.5114 130.195 47.4908 130.061 47.5733 129.845H47.6557H47.6042C47.6097 129.767 47.6097 129.688 47.6042 129.609C47.8618 129.609 48.1504 129.732 48.1917 129.609L47.6042 129.486C47.6042 129.301 47.4908 129.044 47.3877 129.116C47.2494 129.209 47.096 129.279 46.9343 129.321L46.5117 129.219L44.7905 128.612L41.6986 127.472C41.8105 127.391 41.9422 127.341 42.0799 127.328C42.5025 127.461 42.6674 127.903 42.9354 127.636C42.5972 127.511 42.2807 127.335 41.9975 127.112C41.7707 127.318 41.3585 127.215 40.9668 127.061C40.6506 126.874 40.3002 126.752 39.9362 126.701C40.1629 126.701 40.2351 126.485 40.1011 126.3C39.4669 126.11 38.8945 125.755 38.4417 125.273C38.5242 125.17 38.72 125.273 38.8128 125.16C38.0924 124.88 37.3287 124.727 36.5557 124.708Z" fill="white"/>
<path fill-rule="evenodd" clip-rule="evenodd" d="M40.3896 131.582C41.2181 131.6 42.0236 131.857 42.7086 132.321C42.7086 132.219 42.7086 132.116 42.6365 132.023C42.9044 132.116 43.0487 132.095 43.1518 132.023C42.1933 131.808 41.7501 131.561 40.8122 131.366C41.8326 131.715 40.6473 131.592 40.3896 131.582Z" fill="white"/>
<path fill-rule="evenodd" clip-rule="evenodd" d="M38.9162 130.534C38.7007 130.463 38.5011 130.352 38.3288 130.205C38.0711 130.369 38.8235 131.058 38.638 130.729C38.2566 130.462 38.9471 130.677 38.9162 130.534Z" fill="white"/>
<path fill-rule="evenodd" clip-rule="evenodd" d="M35.4941 131.058C35.0922 131.541 36.8546 131.931 36.9061 132.393L36.9783 132.229C37.071 132.229 37.1638 132.301 37.1638 132.229C36.8134 132.013 36.298 131.818 35.69 131.448C35.7312 131.304 35.8342 131.171 35.4941 131.058Z" fill="white"/>
<path fill-rule="evenodd" clip-rule="evenodd" d="M30.3818 134.983C30.5467 134.983 31.0621 134.859 30.7322 134.674C30.32 134.798 30.1139 134.479 29.7841 134.572C30.052 134.726 30.1551 134.849 30.1757 134.983C29.6088 134.839 29.6398 134.705 29.0729 134.366C28.9698 134.489 29.1657 134.644 29.0729 134.767C28.6642 134.491 28.1931 134.322 27.7021 134.274C28.1659 134.52 28.0835 134.726 28.5576 134.972C29.1554 134.911 29.5367 135.281 30.6189 135.692C30.6189 135.507 30.9075 135.692 31.0517 135.609C30.7824 135.456 30.553 135.241 30.3818 134.983Z" fill="white"/>
<path fill-rule="evenodd" clip-rule="evenodd" d="M34.6592 118.738C35.0199 118.82 35.1436 119.262 35.2673 119.098C34.7416 118.748 35.0405 118.666 34.9993 118.44C34.721 118.512 34.6695 118.43 34.6592 118.738Z" fill="white"/>
<path fill-rule="evenodd" clip-rule="evenodd" d="M106.898 13.8405C107.495 14.3234 107.774 14.1898 108.217 14.3748C108.455 14.6708 108.65 14.9996 108.794 15.3509C109.207 15.5422 109.583 15.8029 109.907 16.1215C110.32 16.5399 110.772 16.9183 111.257 17.2518C110.848 16.9482 110.571 16.4994 110.484 15.9982C109.876 15.7619 109.649 15.3612 109.093 15.2481C109.196 15.1248 109.093 15.0221 108.866 14.9707C109.01 14.8063 109.144 14.6419 108.866 14.4056C108.413 14.4056 107.753 13.9329 107.3 13.9021C107.255 13.6929 107.179 13.4918 107.073 13.3062C107.04 13.3495 106.995 13.383 106.944 13.4029C106.893 13.4228 106.838 13.4285 106.784 13.4192C107.021 13.5939 107.042 13.7274 106.898 13.8405Z" fill="white"/>
<path fill-rule="evenodd" clip-rule="evenodd" d="M43.7392 137.86C43.3669 137.601 42.9779 137.368 42.5746 137.161C41.711 136.7 40.759 136.426 39.7815 136.359C39.7197 137.079 39.0085 137.13 38.081 136.945C38.2768 136.555 37.2358 136.298 37.1431 135.918C37.0606 136.298 36.4835 135.918 36.5041 136.113C36.423 135.923 36.2866 135.762 36.1124 135.65C35.999 136.072 35.0199 135.445 34.3809 135.229C34.2676 135.537 34.4634 135.548 34.1748 135.712C35.0503 136.353 35.9737 136.927 36.9369 137.428C38.6066 137.551 40.3999 139.483 42.523 139.976C43.9453 140.295 44.8832 139.668 44.5843 138.507C44.3228 138.266 44.0399 138.05 43.7392 137.86Z" fill="white"/>
</g>
<path d="M83.3382 58.6308C83.3382 54.5961 82.9109 51.3589 82.0562 48.9193C81.2014 46.3858 80.0415 44.4622 78.5762 43.1486C77.2331 41.7411 75.5847 40.8497 73.631 40.4744C71.7995 40.0052 69.7848 39.7707 67.5869 39.7707C65.389 39.7707 63.3133 40.0052 61.3596 40.4744C59.5281 40.8497 57.8797 41.7411 56.4144 43.1486C55.0713 44.4622 53.9724 46.3858 53.1177 48.9193C52.2629 51.3589 51.8356 54.5961 51.8356 58.6308C51.8356 64.3546 52.2019 69.9845 52.9345 75.5206C53.7892 81.0566 54.8881 86.0297 56.2313 90.4398C57.6965 94.7561 59.3449 98.2748 61.1765 100.996C63.1301 103.623 65.2059 104.937 67.4037 104.937C69.4795 104.937 71.3721 103.342 73.0816 100.151C74.9131 96.8673 76.5005 92.4572 77.8436 86.9211L90.8476 88.7508C88.0392 95.5067 84.4372 100.902 80.0415 104.937C75.7678 108.878 71.4942 110.848 67.2206 110.848C62.947 110.848 58.9786 109.347 55.3155 106.344C51.6524 103.248 48.4167 99.26 45.6083 94.3808C42.922 89.4077 40.7852 83.8247 39.1979 77.6318C37.7326 71.345 37 65.0114 37 58.6308C37 53.2824 37.7937 49.0131 39.381 45.8228C40.9684 42.6325 43.1052 40.146 45.7914 38.3632C48.5998 36.5804 51.8356 35.4075 55.4987 34.8445C59.1618 34.2815 63.0691 34 67.2206 34C71.3721 34 75.2794 34.2815 78.9425 34.8445C82.7277 35.4075 86.0245 36.4865 88.8329 38.0817C91.7634 39.583 94.0223 41.788 95.6096 44.6968C97.3191 47.5118 97.4991 54.4515 96.8244 58.6308H83.3382Z" fill="#922837"/>
<path d="M84.1198 67.1118C83.8919 68.1354 83.9904 69.0071 84.4152 69.7267C84.873 70.4526 85.4819 71.118 86.2419 71.7228C87.035 72.3339 87.8814 72.9373 88.7811 73.5328C89.7139 74.1346 90.5451 74.8062 91.2748 75.5475C92.0374 76.2951 92.6008 77.1652 92.9648 78.1578C93.3618 79.1567 93.4008 80.3726 93.0818 81.8058C92.5881 84.0237 91.4854 85.5762 89.7738 86.4634C88.0699 87.3165 85.9297 87.5011 83.3534 87.0172C82.2303 86.8063 81.1797 86.5023 80.2013 86.1052C79.2484 85.7485 78.4401 85.2057 77.7765 84.4767C77.1536 83.7198 76.7286 82.7691 76.5017 81.6245C76.2823 80.4457 76.3371 78.963 76.6661 77.1762L80.7476 77.6229C80.4692 79.0281 80.3506 80.1789 80.3919 81.0754C80.4739 81.9439 80.6598 82.6543 80.9498 83.2064C81.2475 83.7244 81.6415 84.1184 82.132 84.3883C82.6631 84.6302 83.226 84.807 83.8205 84.9187C85.2408 85.1854 86.4092 84.9605 87.3258 84.244C88.2423 83.5274 88.8563 82.4696 89.1678 81.0706C89.4032 80.0129 89.3124 79.1071 88.8952 78.3533C88.478 77.5995 87.8894 76.9202 87.1294 76.3153C86.3693 75.7104 85.5357 75.1273 84.6283 74.5658C83.7616 73.9765 82.9558 73.3452 82.211 72.6721C81.4737 71.9648 80.9155 71.149 80.5363 70.2246C80.1571 69.3002 80.1194 68.1556 80.4233 66.7907C80.636 65.8353 81.0417 64.8629 81.6405 63.8733C82.2723 62.89 82.997 62.0307 83.8145 61.2956C84.6726 60.5325 85.5752 59.9555 86.5225 59.5646C87.5104 59.1458 88.4668 59.0233 89.3916 59.197C90.7789 59.4576 91.9076 60.4161 92.7776 62.0725C93.6883 63.701 94.1788 65.7483 94.2492 68.2144L89.9968 68.5355C90.4526 66.4882 90.5402 64.7806 90.2598 63.4126C90.0123 62.0508 89.5749 61.311 88.9473 61.1931C88.4849 61.1063 87.9896 61.2443 87.4614 61.6073C86.9739 61.9423 86.5056 62.4231 86.0564 63.0497C85.6148 63.6422 85.2076 64.3122 84.8347 65.0598C84.5024 65.7795 84.2641 66.4634 84.1198 67.1118Z" fill="#FFAF00"/>
</svg>
